<?xml version="1.0"?>
<!DOCTYPE svg PUBLIC "-//W3C//DTD SVG 1.1//EN" "http://www.w3.org/Graphics/SVG/1.1/DTD/svg11.dtd">
<svg xmlns="http://www.w3.org/2000/svg" xmlns:xl="http://www.w3.org/1999/xlink" version="1.1" viewBox="1697 790 263 199" width="263pt" height="199pt"><metadata xmlns:dc="http://purl.org/dc/elements/1.1/"><dc:date>2010-06-23 03:56Z</dc:date><!-- Produced by OmniGraffle Professional 5.2.3 --></metadata><defs></defs><g stroke="none" stroke-opacity="1" stroke-dasharray="none" fill="none" fill-opacity="1"><title>Canvas 1</title><rect fill="white" width="2795" height="3132"/><g><title>Layer 1</title><rect x="1767.2" y="943.104" width="41.910889" height="20.946777" fill="#e6e6e6"/><rect x="1767.2" y="943.104" width="41.910889" height="20.946777" stroke="black" stroke-linecap="round" stroke-linejoin="round" stroke-width="1"/><circle cx="1837.6753" cy="891.2603" r="12.595395" fill="#333"/><circle cx="1837.6753" cy="891.2603" r="12.595395" stroke="black" stroke-linecap="round" stroke-linejoin="round" stroke-width="1"/><circle cx="1886.4554" cy="920.00134" r="12.595395" fill="#333"/><circle cx="1886.4554" cy="920.00134" r="12.595395" stroke="black" stroke-linecap="round" stroke-linejoin="round" stroke-width="1"/><circle cx="1834.0557" cy="888.1436" r="8.855632" fill="white"/><circle cx="1889.8356" cy="924.9505" r="8.855632" fill="white"/><path d="M 1847.0376 890.723 L 1879.8977 909.69476 L 1874.666 918.75635 L 1841.8059 899.7846 Z" fill="#333"/><path d="M 1885.6414 826.677 C 1887.0907 823.3563 1886.9989 820.20746 1889.99 816.714 C 1892.9811 813.2205 1899.0571 809.3803 1903.59 805.714" stroke="black" stroke-linecap="round" stroke-linejoin="round" stroke-width="5"/><ellipse cx="1901.5266" cy="807.3245" rx="5.871957" ry="5.5509872" fill="#ffe957"/><ellipse cx="1901.5266" cy="807.3245" rx="5.871957" ry="5.5509872" stroke="black" stroke-linecap="round" stroke-linejoin="round" stroke-width="1"/><circle cx="1873.3378" cy="854.8648" r="30.247803" fill="#e6e6e6"/><circle cx="1873.3378" cy="854.8648" r="30.247803" stroke="black" stroke-linecap="round" stroke-linejoin="round" stroke-width="1"/><circle cx="1862.0681" cy="905.7071" r="13.0180626" fill="#e6e6e6"/><circle cx="1862.0681" cy="905.7071" r="13.0180626" stroke="black" stroke-linecap="round" stroke-linejoin="round" stroke-width="1"/><path d="M 1875.91 953.4384 C 1875.91 940.69916 1884.8784 930.372 1895.9414 930.372 C 1907.0044 930.372 1915.9728 940.69916 1915.9728 953.4384 L 1875.91 953.4384" fill="#e6e6e6"/><path d="M 1875.91 953.4384 C 1875.91 940.69916 1884.8784 930.372 1895.9414 930.372 C 1907.0044 930.372 1915.9728 940.69916 1915.9728 953.4384 L 1875.91 953.4384" stroke="black" stroke-linecap="round" stroke-linejoin="round" stroke-width="1"/><path d="M 1915.9728 953.441 C 1915.9728 955.5805 1907.0044 957.3149 1895.9414 957.3149 C 1884.8784 957.3149 1875.91 955.58044 1875.91 953.441 L 1915.9728 953.441" fill="#aaa"/><path d="M 1915.9728 953.441 C 1915.9728 955.5805 1907.0044 957.3149 1895.9414 957.3149 C 1884.8784 957.3149 1875.91 955.58044 1875.91 953.441 L 1915.9728 953.441" stroke="black" stroke-linecap="round" stroke-linejoin="round" stroke-width="1"/><path d="M 1887.4912 940.3652 L 1880.1295 898.615 C 1879.1917 893.2967 1887.7793 887.33197 1899.2981 885.30084 C 1910.817 883.2698 1920.9266 885.9377 1921.8645 891.25604 L 1929.2261 933.00616 L 1910.6238 949.5319 Z" fill="#e6e6e6"/><path d="M 1887.4912 940.3652 L 1880.1295 898.615 C 1879.1917 893.2967 1887.7793 887.33197 1899.2981 885.30084 C 1910.817 883.2698 1920.9266 885.9377 1921.8645 891.25604 L 1929.2261 933.00616 L 1910.6238 949.5319 Z" stroke="black" stroke-linecap="round" stroke-linejoin="round" stroke-width="1"/><path d="M 1899.36 956.9764 C 1899.36 944.2371 1908.3284 933.91 1919.3914 933.91 C 1930.4543 933.91 1939.4227 944.2371 1939.4227 956.9764 L 1899.36 956.9764" fill="#e6e6e6"/><path d="M 1899.36 956.9764 C 1899.36 944.2371 1908.3284 933.91 1919.3914 933.91 C 1930.4543 933.91 1939.4227 944.2371 1939.4227 956.9764 L 1899.36 956.9764" stroke="black" stroke-linecap="round" stroke-linejoin="round" stroke-width="1"/><path d="M 1939.4227 956.979 C 1939.4227 959.11853 1930.4543 960.8529 1919.3914 960.8529 C 1908.3284 960.8529 1899.36 959.11847 1899.36 956.979 L 1939.4227 956.979" fill="#aaa"/><path d="M 1939.4227 956.979 C 1939.4227 959.11853 1930.4543 960.8529 1919.3914 960.8529 C 1908.3284 960.8529 1899.36 959.11847 1899.36 956.979 L 1939.4227 956.979" stroke="black" stroke-linecap="round" stroke-linejoin="round" stroke-width="1"/><circle cx="1902.478" cy="842.6681" r="13.0180626" fill="#e6e6e6"/><circle cx="1902.478" cy="842.6681" r="13.0180626" stroke="black" stroke-linecap="round" stroke-linejoin="round" stroke-width="1"/><path d="M 1854.2323 844.7911 C 1861.2349 848.2693 1865.4226 857.24994 1863.5859 864.8499 C 1861.7494 872.4499 1854.5839 875.7912 1847.5814 872.31293 C 1840.5789 868.8347 1836.3911 859.85406 1838.2278 852.2541 C 1840.0643 844.6541 1847.2299 841.3128 1854.2323 844.7911" fill="#aaa"/><path d="M 1854.2323 844.7911 C 1861.2349 848.2693 1865.4226 857.24994 1863.5859 864.8499 C 1861.7494 872.4499 1854.5839 875.7912 1847.5814 872.31293 C 1840.5789 868.8347 1836.3911 859.85406 1838.2278 852.2541 C 1840.0643 844.6541 1847.2299 841.3128 1854.2323 844.7911" stroke="black" stroke-linecap="round" stroke-linejoin="round" stroke-width="1"/><path d="M 1849.0782 850.8556 C 1853.3876 854.13104 1856.6694 861.1692 1856.4087 866.57574 C 1856.148 871.98224 1852.4431 873.70984 1848.1339 870.43433 C 1843.8246 867.1589 1840.5427 860.12073 1840.8035 854.71417 C 1841.0642 849.3077 1844.769 847.5801 1849.0782 850.8556" fill="#ffe957"/><path d="M 1849.0782 850.8556 C 1853.3876 854.13104 1856.6694 861.1692 1856.4087 866.57574 C 1856.148 871.98224 1852.4431 873.70984 1848.1339 870.43433 C 1843.8246 867.1589 1840.5427 860.12073 1840.8035 854.71417 C 1841.0642 849.3077 1844.769 847.5801 1849.0782 850.8556" stroke="black" stroke-linecap="round" stroke-linejoin="round" stroke-width="1"/><path d="M 1871.4286 836.90143 C 1880.4 841.2523 1885.6998 852.61786 1883.2661 862.28705 C 1880.8324 871.9563 1871.5868 876.26764 1862.6154 871.9167 C 1853.6439 867.5658 1848.3441 856.20026 1850.7778 846.53107 C 1853.2115 836.8618 1862.4572 832.5505 1871.4286 836.90143" fill="#aaa"/><path d="M 1871.4286 836.90143 C 1880.4 841.2523 1885.6998 852.61786 1883.2661 862.28705 C 1880.8324 871.9563 1871.5868 876.26764 1862.6154 871.9167 C 1853.6439 867.5658 1848.3441 856.20026 1850.7778 846.53107 C 1853.2115 836.8618 1862.4572 832.5505 1871.4286 836.90143" stroke="black" stroke-linecap="round" stroke-linejoin="round" stroke-width="1"/><path d="M 1863.8369 845.72253 C 1869.227 849.49115 1873.1283 857.85724 1872.5504 864.40875 C 1871.9727 870.96027 1867.1348 873.21625 1861.7446 869.44763 C 1856.3545 865.679 1852.4532 857.31293 1853.0311 850.7614 C 1853.6089 844.2099 1858.4468 841.9539 1863.8369 845.72253" fill="#ffe957"/><path d="M 1863.8369 845.72253 C 1869.227 849.49115 1873.1283 857.85724 1872.5504 864.40875 C 1871.9727 870.96027 1867.1348 873.21625 1861.7446 869.44763 C 1856.3545 865.679 1852.4532 857.31293 1853.0311 850.7614 C 1853.6089 844.2099 1858.4468 841.9539 1863.8369 845.72253" stroke="black" stroke-linecap="round" stroke-linejoin="round" stroke-width="1"/><path d="M 1727.3429 939.19696 L 1766.4705 963.95 L 1766.0321 942.9921 L 1726.9045 918.2391 Z" fill="#e6e6e6"/><path d="M 1727.3429 939.19696 L 1766.4705 963.95 L 1766.0321 942.9921 L 1726.9045 918.2391 Z" stroke="black" stroke-linecap="round" stroke-linejoin="round" stroke-width="1"/><path d="M 1729.7688 939.4373 L 1763.9856 961.0837 L 1763.6023 942.75616 L 1729.3855 921.1098 Z" fill="white"/><path d="M 1729.7688 939.4373 L 1763.9856 961.0837 L 1763.6023 942.75616 L 1729.3855 921.1098 Z" stroke="black" stroke-linecap="round" stroke-linejoin="round" stroke-width="1"/><rect x="1765.79" y="941.69397" width="41.910889" height="20.946777" fill="#e6e6e6"/><rect x="1765.79" y="941.69397" width="41.910889" height="20.946777" stroke="black" stroke-linecap="round" stroke-linejoin="round" stroke-width="1"/><rect x="1769.52" y="943.812" width="7.0012207" height="17.038452" fill="#aaa"/><rect x="1769.52" y="943.812" width="7.0012207" height="17.038452" stroke="black" stroke-linecap="round" stroke-linejoin="round" stroke-width="1"/><rect x="1778.97" y="943.812" width="26.036133" height="17.038452" fill="#aaa"/><rect x="1778.97" y="943.812" width="26.036133" height="17.038452" stroke="black" stroke-linecap="round" stroke-linejoin="round" stroke-width="1"/><path d="M 1806.1536 926.95557 L 1810.2968 929.5066 L 1803.4016 935.61615 L 1815.1677 929.7329 L 1811.2943 927.2275 L 1819.965 922.1854 L 1815.2932 918.98566 L 1821.5103 914.0352 L 1810.5344 918.9763 L 1814.9685 922.03467 L 1806.1536 926.9555 Z" fill="#ffe957"/><path d="M 1806.1536 926.95557 L 1810.2968 929.5066 L 1803.4016 935.61615 L 1815.1677 929.7329 L 1811.2943 927.2275 L 1819.965 922.1854 L 1815.2932 918.98566 L 1821.5103 914.0352 L 1810.5344 918.9763 L 1814.9685 922.03467 L 1806.1536 926.9555 Z" stroke="black" stroke-linecap="round" stroke-linejoin="round" stroke-width="1"/><path d="M 1756.6534 918.85663 L 1753.7511 922.7617 L 1748.2656 915.3604 L 1753.1011 927.59454 L 1755.9346 923.95416 L 1760.2017 933.0312 L 1763.7965 928.6562 L 1768.1863 935.28094 L 1764.2206 923.9163 L 1760.7874 928.06696 L 1756.6536 918.8567 Z" fill="#ffe957"/><path d="M 1756.6534 918.85663 L 1753.7511 922.7617 L 1748.2656 915.3604 L 1753.1011 927.59454 L 1755.9346 923.95416 L 1760.2017 933.0312 L 1763.7965 928.6562 L 1768.1863 935.28094 L 1764.2206 923.9163 L 1760.7874 928.06696 L 1756.6536 918.8567 Z" stroke="black" stroke-linecap="round" stroke-linejoin="round" stroke-width="1"/><path d="M 1790.2048 895.821 L 1785.3912 896.52997 L 1786.746 887.4177 L 1781.5143 899.48767 L 1786.0919 898.9171 L 1782.6909 908.3529 L 1788.3263 907.8012 L 1786.746 915.5896 L 1791.9778 904.74945 L 1786.6152 905.2568 L 1790.2048 895.82104 Z" fill="#ffe957"/><path d="M 1790.2048 895.821 L 1785.3912 896.52997 L 1786.746 887.4177 L 1781.5143 899.48767 L 1786.0919 898.9171 L 1782.6909 908.3529 L 1788.3263 907.8012 L 1786.746 915.5896 L 1791.9778 904.74945 L 1786.6152 905.2568 L 1790.2048 895.82104 Z" stroke="black" stroke-linecap="round" stroke-linejoin="round" stroke-width="1"/></g></g></svg>
