<?xml version="1.0"?>
<!DOCTYPE svg PUBLIC "-//W3C//DTD SVG 1.1//EN" "http://www.w3.org/Graphics/SVG/1.1/DTD/svg11.dtd">
<svg xmlns="http://www.w3.org/2000/svg" xmlns:xl="http://www.w3.org/1999/xlink" version="1.1" viewBox="401 71 133 209" width="133pt" height="209pt"><metadata xmlns:dc="http://purl.org/dc/elements/1.1/"><dc:date>2010-06-23 06:14Z</dc:date><!-- Produced by OmniGraffle Professional 5.2.3 --></metadata><defs><filter id="Shadow" filterUnits="userSpaceOnUse"><feGaussianBlur in="SourceAlpha" result="blur" stdDeviation="3.488"/><feOffset in="blur" result="offset" dx="0" dy="4"/><feFlood flood-color="black" flood-opacity=".75" result="flood"/><feComposite in="flood" in2="offset" operator="in"/></filter></defs><g stroke="none" stroke-opacity="1" stroke-dasharray="none" fill="none" fill-opacity="1"><title>Canvas 1</title><rect fill="white" width="2795" height="3132"/><g><title>Layer 1</title><g><use xl:href="#id9407_Graphic" filter="url(#Shadow)"/><use xl:href="#id9408_Graphic" filter="url(#Shadow)"/><use xl:href="#id9404_Graphic" filter="url(#Shadow)"/><use xl:href="#id9403_Graphic" filter="url(#Shadow)"/><use xl:href="#id9396_Graphic" filter="url(#Shadow)"/><use xl:href="#id9379_Graphic" filter="url(#Shadow)"/></g><g id="id9407_Graphic"><circle cx="481.85947" cy="139.12051" r="31.914558" fill="#e6e6e6"/><circle cx="481.85947" cy="139.12051" r="31.914558" stroke="black" stroke-linecap="round" stroke-linejoin="round" stroke-width="1"/></g><path d="M 462.76096 129.755844 C 469.14737 135.26547 472.0742 146.18855 469.29822 154.15323 C 466.52228 162.11795 459.09473 164.10814 452.70834 158.598465 C 446.32193 153.08884 443.3951 142.16576 446.17108 134.20108 C 448.94702 126.23637 456.37457 124.24617 462.76096 129.755844" fill="#aaa"/><path d="M 462.76096 129.755844 C 469.14737 135.26547 472.0742 146.18855 469.29822 154.15323 C 466.52228 162.11795 459.09473 164.10814 452.70834 158.598465 C 446.32193 153.08884 443.3951 142.16576 446.17108 134.20108 C 448.94702 126.23637 456.37457 124.24617 462.76096 129.755844" stroke="black" stroke-linecap="round" stroke-linejoin="round" stroke-width="1"/><path d="M 460.9883 135.61516 C 465.57855 140.03967 467.87048 148.59323 466.10745 154.72009 C 464.34448 160.84697 459.19418 162.22699 454.60397 157.80244 C 450.01373 153.37793 447.7218 144.82437 449.48483 138.69751 C 451.2478 132.57063 456.3981 131.19061 460.9883 135.61516" fill="#ffe957"/><path d="M 460.9883 135.61516 C 465.57855 140.03967 467.87048 148.59323 466.10745 154.72009 C 464.34448 160.84697 459.19418 162.22699 454.60397 157.80244 C 450.01373 153.37793 447.7218 144.82437 449.48483 138.69751 C 451.2478 132.57063 456.3981 131.19061 460.9883 135.61516" stroke="black" stroke-linecap="round" stroke-linejoin="round" stroke-width="1"/><g id="id9408_Graphic"><path d="M 453.15976 224.56062 L 457.0583 180.0005 C 457.55487 174.32422 467.93573 170.59033 480.2298 171.66592 C 492.5239 172.74152 502.09863 178.2213 501.60202 183.89757 L 497.70352 228.4577 L 474.23212 240.21997 Z" fill="#e6e6e6"/><path d="M 453.15976 224.56062 L 457.0583 180.0005 C 457.55487 174.32422 467.93573 170.59033 480.2298 171.66592 C 492.5239 172.74152 502.09863 178.2213 501.60202 183.89757 L 497.70352 228.4577 L 474.23212 240.21997 Z" stroke="black" stroke-linecap="round" stroke-linejoin="round" stroke-width="1"/></g><g id="id9404_Graphic"><line x1="479.542" y1="111.953" x2="477.828" y2="92.1471" stroke="black" stroke-linecap="round" stroke-linejoin="round" stroke-width="5"/></g><g id="id9403_Graphic"><ellipse cx="477.83417" cy="92.21753" rx="4.7351413" ry="4.4764485" fill="#ffe957"/><ellipse cx="477.83417" cy="92.21753" rx="4.7351413" ry="4.4764485" stroke="black" stroke-linecap="round" stroke-linejoin="round" stroke-width="1"/></g><path d="M 501.96252 132.72943 C 505.81848 141.30325 503.62982 153.71588 497.07397 160.45381 C 490.51813 167.1918 482.07773 165.70352 478.2218 157.12967 C 474.36584 148.55585 476.5545 136.14322 483.11035 129.40529 C 489.6662 122.6673 498.1066 124.15557 501.96252 132.72943" fill="#aaa"/><path d="M 501.96252 132.72943 C 505.81848 141.30325 503.62982 153.71588 497.07397 160.45381 C 490.51813 167.1918 482.07773 165.70352 478.2218 157.12967 C 474.36584 148.55585 476.5545 136.14322 483.11035 129.40529 C 489.6662 122.6673 498.1066 124.15557 501.96252 132.72943" stroke="black" stroke-linecap="round" stroke-linejoin="round" stroke-width="1"/><path d="M 497.41122 137.81267 C 499.96393 144.444305 498.25003 154.16431 493.5831 159.52292 C 488.9162 164.88156 483.0636 163.84959 480.5109 157.21794 C 477.9582 150.5863 479.6721 140.8663 484.33902 135.50769 C 489.00592 130.14905 494.85852 131.181015 497.41122 137.81267" fill="#ffe957"/><path d="M 497.41122 137.81267 C 499.96393 144.444305 498.25003 154.16431 493.5831 159.52292 C 488.9162 164.88156 483.0636 163.84959 480.5109 157.21794 C 477.9582 150.5863 479.6721 140.8663 484.33902 135.50769 C 489.00592 130.14905 494.85852 131.181015 497.41122 137.81267" stroke="black" stroke-linecap="round" stroke-linejoin="round" stroke-width="1"/><path d="M 429.36539 152.196335 L 494.20908 146.523254 L 486.40735 206.71698 L 447.5011 210.12082 Z" fill="white"/><path d="M 429.36539 152.196335 L 494.20908 146.523254 L 486.40735 206.71698 L 447.5011 210.12082 Z" stroke="black" stroke-linecap="round" stroke-linejoin="round" stroke-width="1"/><path d="M 427.58633 154.41434 L 492.43002 148.74126 L 484.6283 208.93497 L 445.72205 212.33882 Z" fill="white"/><path d="M 427.58633 154.41434 L 492.43002 148.74126 L 484.6283 208.93497 L 445.72205 212.33882 Z" stroke="black" stroke-linecap="round" stroke-linejoin="round" stroke-width="1"/><path d="M 425.89633 157.06235 L 490.74002 151.38927 L 482.9383 211.58298 L 444.03204 214.98683 Z" fill="white"/><path d="M 425.89633 157.06235 L 490.74002 151.38927 L 482.9383 211.58298 L 444.03204 214.98683 Z" stroke="black" stroke-linecap="round" stroke-linejoin="round" stroke-width="1"/><g id="id9396_Graphic"><ellipse cx="487.9872" cy="187.69225" rx="10.159219" ry="9.787264" fill="#e6e6e6"/><ellipse cx="487.9872" cy="187.69225" rx="10.159219" ry="9.787264" stroke="black" stroke-linecap="round" stroke-linejoin="round" stroke-width="1"/></g><path d="M 466.14224 219.61032 C 469.8249 232.55629 464.34485 245.45917 453.90222 248.42972 C 443.45963 251.40027 432.0088 243.31361 428.3261 230.36765 L 466.14224 219.61032" fill="#aaa"/><path d="M 466.14224 219.61032 C 469.8249 232.55629 464.34485 245.45917 453.90222 248.42972 C 443.45963 251.40027 432.0088 243.31361 428.3261 230.36765 L 466.14224 219.61032" stroke="black" stroke-linecap="round" stroke-linejoin="round" stroke-width="1"/><path d="M 428.49918 230.9594 C 424.81653 218.01343 430.29657 205.11053 440.7392 202.13998 C 451.1818 199.16943 462.63263 207.25609 466.3153 220.20204 L 428.49918 230.9594" fill="#aaa"/><path d="M 428.49918 230.9594 C 424.81653 218.01343 430.29657 205.11053 440.7392 202.13998 C 451.1818 199.16943 462.63263 207.25609 466.3153 220.20204 L 428.49918 230.9594" stroke="black" stroke-linecap="round" stroke-linejoin="round" stroke-width="1"/><path d="M 435.2607 211.14911 C 435.15723 210.7361 438.43402 209.55927 442.57962 208.52057 C 446.72522 207.48187 450.1698 206.97464 450.27325 207.38765 L 435.2607 211.14911" fill="black"/><path d="M 435.2607 211.14911 C 435.15723 210.7361 438.43402 209.55927 442.57962 208.52057 C 446.72522 207.48187 450.1698 206.97464 450.27325 207.38765 L 435.2607 211.14911" stroke="black" stroke-linecap="round" stroke-linejoin="round" stroke-width="1"/><path d="M 430.37836 221.03867 C 430.27658 220.63254 436.5125 218.7202 444.3066 216.76736 C 452.10074 214.81451 458.50162 213.56064 458.6034 213.96678 L 430.37836 221.03867" fill="black"/><path d="M 430.37836 221.03867 C 430.27658 220.63254 436.5125 218.7202 444.3066 216.76736 C 452.10074 214.81451 458.50162 213.56064 458.6034 213.96678 L 430.37836 221.03867" stroke="black" stroke-linecap="round" stroke-linejoin="round" stroke-width="1"/><path d="M 458.66092 239.82884 C 458.7644 240.24184 455.4876 241.41867 451.342 242.45737 C 447.1964 243.49606 443.75183 244.0033 443.64838 243.59029 L 458.66092 239.82884" fill="black"/><path d="M 458.66092 239.82884 C 458.7644 240.24184 455.4876 241.41867 451.342 242.45737 C 447.1964 243.49606 443.75183 244.0033 443.64838 243.59029 L 458.66092 239.82884" stroke="black" stroke-linecap="round" stroke-linejoin="round" stroke-width="1"/><path d="M 462.41513 229.50342 C 462.5169 229.90955 456.28098 231.82188 448.48688 233.77473 C 440.69275 235.72757 434.29187 236.98143 434.1901 236.5753 L 462.41513 229.50342" fill="black"/><path d="M 462.41513 229.50342 C 462.5169 229.90955 456.28098 231.82188 448.48688 233.77473 C 440.69275 235.72757 434.29187 236.98143 434.1901 236.5753 L 462.41513 229.50342" stroke="black" stroke-linecap="round" stroke-linejoin="round" stroke-width="1"/><path d="M 501.88522 232.08217 C 498.60153 245.13503 487.40424 253.56923 476.87537 250.9205 C 466.34653 248.27176 460.47314 235.5431 463.75684 222.49023 L 501.88522 232.08217" fill="#aaa"/><path d="M 501.88522 232.08217 C 498.60153 245.13503 487.40424 253.56923 476.87537 250.9205 C 466.34653 248.27176 460.47314 235.5431 463.75684 222.49023 L 501.88522 232.08217" stroke="black" stroke-linecap="round" stroke-linejoin="round" stroke-width="1"/><path d="M 463.61218 223.08853 C 466.89587 210.03568 478.09317 201.60147 488.62204 204.2502 C 499.15088 206.89894 505.02426 219.6276 501.74057 232.68047 L 463.61218 223.08853" fill="#aaa"/><path d="M 463.61218 223.08853 C 466.89587 210.03568 478.09317 201.60147 488.62204 204.2502 C 499.15088 206.89894 505.02426 219.6276 501.74057 232.68047 L 463.61218 223.08853" stroke="black" stroke-linecap="round" stroke-linejoin="round" stroke-width="1"/><path d="M 479.3695 209.31174 C 479.4864 208.90231 482.9126 209.52155 487.02216 210.69481 C 491.13168 211.86807 494.36838 213.15108 494.2515 213.5605 L 479.3695 209.31174" fill="black"/><path d="M 479.3695 209.31174 C 479.4864 208.90231 482.9126 209.52155 487.02216 210.69481 C 491.13168 211.86807 494.36838 213.15108 494.2515 213.5605 L 479.3695 209.31174" stroke="black" stroke-linecap="round" stroke-linejoin="round" stroke-width="1"/><path d="M 470.2039 215.43948 C 470.31885 215.0369 476.67548 216.49872 484.4018 218.70456 C 492.1281 220.91042 498.29837 223.02498 498.18344 223.42757 L 470.2039 215.43948" fill="black"/><path d="M 470.2039 215.43948 C 470.31885 215.0369 476.67548 216.49872 484.4018 218.70456 C 492.1281 220.91042 498.29837 223.02498 498.18344 223.42757 L 470.2039 215.43948" stroke="black" stroke-linecap="round" stroke-linejoin="round" stroke-width="1"/><path d="M 485.29712 245.84518 C 485.18024 246.25461 481.75403 245.63538 477.64447 244.46211 C 473.53494 243.28885 470.29825 242.00584 470.41513 241.59642 L 485.29712 245.84518" fill="black"/><path d="M 485.29712 245.84518 C 485.18024 246.25461 481.75403 245.63538 477.64447 244.46211 C 473.53494 243.28885 470.29825 242.00584 470.41513 241.59642 L 485.29712 245.84518" stroke="black" stroke-linecap="round" stroke-linejoin="round" stroke-width="1"/><path d="M 494.4626 237.48459 C 494.34763 237.88719 487.99103 236.42537 480.26468 234.21953 C 472.53836 232.01369 466.3681 229.89911 466.48303 229.49652 L 494.4626 237.48459" fill="black"/><path d="M 494.4626 237.48459 C 494.34763 237.88719 487.99103 236.42537 480.26468 234.21953 C 472.53836 232.01369 466.3681 229.89911 466.48303 229.49652 L 494.4626 237.48459" stroke="black" stroke-linecap="round" stroke-linejoin="round" stroke-width="1"/><g id="id9379_Graphic"><ellipse cx="435.8529" cy="186.97424" rx="10.3529243" ry="9.787264" fill="#e6e6e6"/><ellipse cx="435.8529" cy="186.97424" rx="10.3529243" ry="9.787264" stroke="black" stroke-linecap="round" stroke-linejoin="round" stroke-width="1"/></g></g></g></svg>
