<?xml version="1.0"?>
<!DOCTYPE svg PUBLIC "-//W3C//DTD SVG 1.1//EN" "http://www.w3.org/Graphics/SVG/1.1/DTD/svg11.dtd">
<svg xmlns="http://www.w3.org/2000/svg" xmlns:xl="http://www.w3.org/1999/xlink" version="1.1" viewBox="2122 1189 111 189" width="111pt" height="189pt"><metadata xmlns:dc="http://purl.org/dc/elements/1.1/"><dc:date>2010-06-23 03:56Z</dc:date><!-- Produced by OmniGraffle Professional 5.2.3 --></metadata><defs></defs><g stroke="none" stroke-opacity="1" stroke-dasharray="none" fill="none" fill-opacity="1"><title>Canvas 1</title><rect fill="white" width="2795" height="3132"/><g><title>Layer 1</title><line x1="2175.5979" y1="1226.29126" x2="2175.4722" y2="1213.3486" stroke="black" stroke-linecap="round" stroke-linejoin="round" stroke-width="5"/><ellipse cx="2175.4375" cy="1209.1644" rx="3.8973265" ry="3.6843612" fill="#ffe957"/><ellipse cx="2175.4375" cy="1209.1644" rx="3.8973265" ry="3.6843612" stroke="black" stroke-linecap="round" stroke-linejoin="round" stroke-width="1"/><path d="M 2158.6587 1331.61316 L 2158.6587 1294.79724 C 2158.6587 1290.10754 2166.9023 1286.3013 2177.0598 1286.3013 C 2187.2173 1286.3013 2195.461 1290.10754 2195.461 1294.79724 L 2195.461 1331.61316 L 2177.0598 1342.9412 Z" fill="#e6e6e6"/><path d="M 2158.6587 1331.61316 L 2158.6587 1294.79724 C 2158.6587 1290.10754 2166.9023 1286.3013 2177.0598 1286.3013 C 2187.2173 1286.3013 2195.461 1290.10754 2195.461 1294.79724 L 2195.461 1331.61316 L 2177.0598 1342.9412 Z" stroke="black" stroke-linecap="round" stroke-linejoin="round" stroke-width="1"/><path d="M 2162.1365 1308.3994 C 2165.4641 1311.5453 2165.4641 1316.6459 2162.1365 1319.79175 C 2158.8086 1322.9376 2153.4136 1322.9376 2150.0857 1319.79175 C 2146.758 1316.6459 2146.758 1311.5453 2150.0857 1308.3994 C 2153.4136 1305.25354 2158.8086 1305.25354 2162.1365 1308.3994" fill="#e6e6e6"/><path d="M 2162.1365 1308.3994 C 2165.4641 1311.5453 2165.4641 1316.6459 2162.1365 1319.79175 C 2158.8086 1322.9376 2153.4136 1322.9376 2150.0857 1319.79175 C 2146.758 1316.6459 2146.758 1311.5453 2150.0857 1308.3994 C 2153.4136 1305.25354 2158.8086 1305.25354 2162.1365 1308.3994" stroke="black" stroke-linecap="round" stroke-linejoin="round" stroke-width="1"/><path d="M 2205.0442 1308.9194 C 2208.3096 1312.0653 2208.3096 1317.1659 2205.0442 1320.3118 C 2201.7788 1323.45764 2196.4844 1323.45764 2193.219 1320.3118 C 2189.9536 1317.1659 2189.9536 1312.0653 2193.219 1308.9194 C 2196.4844 1305.77356 2201.7788 1305.77356 2205.0442 1308.9194" fill="#e6e6e6"/><path d="M 2205.0442 1308.9194 C 2208.3096 1312.0653 2208.3096 1317.1659 2205.0442 1320.3118 C 2201.7788 1323.45764 2196.4844 1323.45764 2193.219 1320.3118 C 2189.9536 1317.1659 2189.9536 1312.0653 2193.219 1308.9194 C 2196.4844 1305.77356 2201.7788 1305.77356 2205.0442 1308.9194" stroke="black" stroke-linecap="round" stroke-linejoin="round" stroke-width="1"/><path d="M 2143.94 1348.40125 C 2143.94 1337.33826 2151.7283 1328.37 2161.3357 1328.37 C 2170.9431 1328.37 2178.7314 1337.33826 2178.7314 1348.40125 L 2143.94 1348.40125" fill="#e6e6e6"/><path d="M 2143.94 1348.40125 C 2143.94 1337.33826 2151.7283 1328.37 2161.3357 1328.37 C 2170.9431 1328.37 2178.7314 1337.33826 2178.7314 1348.40125 L 2143.94 1348.40125" stroke="black" stroke-linecap="round" stroke-linejoin="round" stroke-width="1"/><path d="M 2178.7314 1348.4 C 2178.7314 1350.25806 2170.9431 1351.7643 2161.3357 1351.7643 C 2151.7283 1351.7643 2143.94 1350.25806 2143.94 1348.4 L 2178.7314 1348.4" fill="#aaa"/><path d="M 2178.7314 1348.4 C 2178.7314 1350.25806 2170.9431 1351.7643 2161.3357 1351.7643 C 2151.7283 1351.7643 2143.94 1350.25806 2143.94 1348.4 L 2178.7314 1348.4" stroke="black" stroke-linecap="round" stroke-linejoin="round" stroke-width="1"/><path d="M 2176.6499 1348.40125 C 2176.6499 1337.33826 2184.4382 1328.37 2194.0457 1328.37 C 2203.6531 1328.37 2211.4414 1337.33826 2211.4414 1348.40125 L 2176.6499 1348.40125" fill="#e6e6e6"/><path d="M 2176.6499 1348.40125 C 2176.6499 1337.33826 2184.4382 1328.37 2194.0457 1328.37 C 2203.6531 1328.37 2211.4414 1337.33826 2211.4414 1348.40125 L 2176.6499 1348.40125" stroke="black" stroke-linecap="round" stroke-linejoin="round" stroke-width="1"/><path d="M 2211.4414 1348.4 C 2211.4414 1350.25806 2203.6531 1351.7643 2194.0457 1351.7643 C 2184.4382 1351.7643 2176.6499 1350.25806 2176.6499 1348.4 L 2211.4414 1348.4" fill="#aaa"/><path d="M 2211.4414 1348.4 C 2211.4414 1350.25806 2203.6531 1351.7643 2194.0457 1351.7643 C 2184.4382 1351.7643 2176.6499 1350.25806 2176.6499 1348.4 L 2211.4414 1348.4" stroke="black" stroke-linecap="round" stroke-linejoin="round" stroke-width="1"/><path d="M 2194.4319 1234.48364 C 2204.6902 1244.7418 2204.6902 1261.37366 2194.4319 1271.6318 C 2184.1738 1281.89 2167.542 1281.89 2157.2839 1271.6318 C 2147.0256 1261.37366 2147.0256 1244.7418 2157.2839 1234.48364 C 2167.542 1224.2255 2184.1738 1224.2255 2194.4319 1234.48364" fill="#e6e6e6"/><path d="M 2194.4319 1234.48364 C 2204.6902 1244.7418 2204.6902 1261.37366 2194.4319 1271.6318 C 2184.1738 1281.89 2167.542 1281.89 2157.2839 1271.6318 C 2147.0256 1261.37366 2147.0256 1244.7418 2157.2839 1234.48364 C 2167.542 1224.2255 2184.1738 1224.2255 2194.4319 1234.48364" stroke="black" stroke-linecap="round" stroke-linejoin="round" stroke-width="1"/><path d="M 2169.1699 1235.4573 C 2175.3833 1242.7871 2175.3833 1254.6709 2169.1699 1262.0007 C 2162.9568 1269.3306 2152.883 1269.3306 2146.6699 1262.0007 C 2140.4565 1254.6709 2140.4565 1242.7871 2146.6699 1235.4573 C 2152.883 1228.12744 2162.9568 1228.12744 2169.1699 1235.4573" fill="#aaa"/><path d="M 2169.1699 1235.4573 C 2175.3833 1242.7871 2175.3833 1254.6709 2169.1699 1262.0007 C 2162.9568 1269.3306 2152.883 1269.3306 2146.6699 1262.0007 C 2140.4565 1254.6709 2140.4565 1242.7871 2146.6699 1235.4573 C 2152.883 1228.12744 2162.9568 1228.12744 2169.1699 1235.4573" stroke="black" stroke-linecap="round" stroke-linejoin="round" stroke-width="1"/><path d="M 2166.9663 1237.9064 C 2172.0144 1243.86145 2172.0144 1253.5167 2166.9663 1259.4718 C 2161.9185 1265.427 2153.7339 1265.427 2148.686 1259.4718 C 2143.638 1253.5167 2143.638 1243.86145 2148.686 1237.9064 C 2153.7339 1231.9512 2161.9185 1231.9512 2166.9663 1237.9064" fill="#ffe957"/><path d="M 2166.9663 1237.9064 C 2172.0144 1243.86145 2172.0144 1253.5167 2166.9663 1259.4718 C 2161.9185 1265.427 2153.7339 1265.427 2148.686 1259.4718 C 2143.638 1253.5167 2143.638 1243.86145 2148.686 1237.9064 C 2153.7339 1231.9512 2161.9185 1231.9512 2166.9663 1237.9064" stroke="black" stroke-linecap="round" stroke-linejoin="round" stroke-width="1"/><path d="M 2207.45 1235.4573 C 2213.6633 1242.7871 2213.6633 1254.6709 2207.45 1262.0007 C 2201.2368 1269.3306 2191.1631 1269.3306 2184.95 1262.0007 C 2178.7366 1254.6709 2178.7366 1242.7871 2184.95 1235.4573 C 2191.1631 1228.12744 2201.2368 1228.12744 2207.45 1235.4573" fill="#aaa"/><path d="M 2207.45 1235.4573 C 2213.6633 1242.7871 2213.6633 1254.6709 2207.45 1262.0007 C 2201.2368 1269.3306 2191.1631 1269.3306 2184.95 1262.0007 C 2178.7366 1254.6709 2178.7366 1242.7871 2184.95 1235.4573 C 2191.1631 1228.12744 2201.2368 1228.12744 2207.45 1235.4573" stroke="black" stroke-linecap="round" stroke-linejoin="round" stroke-width="1"/><path d="M 2205.2463 1237.9064 C 2210.2944 1243.86145 2210.2944 1253.5167 2205.2463 1259.4718 C 2200.1985 1265.427 2192.0139 1265.427 2186.966 1259.4718 C 2181.918 1253.5167 2181.918 1243.86145 2186.966 1237.9064 C 2192.0139 1231.9512 2200.1985 1231.9512 2205.2463 1237.9064" fill="#ffe957"/><path d="M 2205.2463 1237.9064 C 2210.2944 1243.86145 2210.2944 1253.5167 2205.2463 1259.4718 C 2200.1985 1265.427 2192.0139 1265.427 2186.966 1259.4718 C 2181.918 1253.5167 2181.918 1243.86145 2186.966 1237.9064 C 2192.0139 1231.9512 2200.1985 1231.9512 2205.2463 1237.9064" stroke="black" stroke-linecap="round" stroke-linejoin="round" stroke-width="1"/></g></g></svg>
