<?xml version="1.0"?>
<!DOCTYPE svg PUBLIC "-//W3C//DTD SVG 1.1//EN" "http://www.w3.org/Graphics/SVG/1.1/DTD/svg11.dtd">
<svg xmlns="http://www.w3.org/2000/svg" xmlns:xl="http://www.w3.org/1999/xlink" version="1.1" viewBox="551 806 292 191" width="292pt" height="191pt"><metadata xmlns:dc="http://purl.org/dc/elements/1.1/"><dc:date>2010-06-23 06:14Z</dc:date><!-- Produced by OmniGraffle Professional 5.2.3 --></metadata><defs></defs><g stroke="none" stroke-opacity="1" stroke-dasharray="none" fill="none" fill-opacity="1"><title>Canvas 1</title><rect fill="white" width="2795" height="3132"/><g><title>Layer 1</title><path d="M 693.71143 849.4561 C 693.74493 847.7369 693.8161 845.84534 693.812 844.29797 C 693.80792 842.7506 693.7287 841.5465 693.687 840.171" stroke="black" stroke-linecap="round" stroke-linejoin="round" stroke-width="5"/><ellipse cx="693.57666" cy="837.7927" rx="4.7756567" ry="4.5146518" fill="#ffe957"/><ellipse cx="693.57666" cy="837.7927" rx="4.7756567" ry="4.5146518" stroke="black" stroke-linecap="round" stroke-linejoin="round" stroke-width="1"/><circle cx="693.18134" cy="876.6433" r="26.692417" fill="#e6e6e6"/><circle cx="693.18134" cy="876.6433" r="26.692417" stroke="black" stroke-linecap="round" stroke-linejoin="round" stroke-width="1"/><path d="M 673.87708 952.6424 L 673.87708 915.2313 C 673.87708 910.4657 682.2541 906.59796 692.57574 906.59796 C 702.8974 906.59796 711.2744 910.4657 711.2744 915.2313 L 711.2744 952.6424 L 692.57574 964.1535 Z" fill="#e6e6e6"/><path d="M 673.87708 952.6424 L 673.87708 915.2313 C 673.87708 910.4657 682.2541 906.59796 692.57574 906.59796 C 702.8974 906.59796 711.2744 910.4657 711.2744 915.2313 L 711.2744 952.6424 L 692.57574 964.1535 Z" stroke="black" stroke-linecap="round" stroke-linejoin="round" stroke-width="1"/><path d="M 658.3319 967.5391 C 658.3319 956.2973 666.24615 947.184 676.0088 947.184 C 685.77142 947.184 693.68567 956.2973 693.68567 967.5391 L 658.3319 967.5391" fill="#e6e6e6"/><path d="M 658.3319 967.5391 C 658.3319 956.2973 666.24615 947.184 676.0088 947.184 C 685.77142 947.184 693.68567 956.2973 693.68567 967.5391 L 658.3319 967.5391" stroke="black" stroke-linecap="round" stroke-linejoin="round" stroke-width="1"/><path d="M 693.68567 967.541 C 693.68567 969.429 685.77142 970.9596 676.0088 970.9596 C 666.24615 970.9596 658.3319 969.429 658.3319 967.541 L 693.68567 967.541" fill="#aaa"/><path d="M 693.68567 967.541 C 693.68567 969.429 685.77142 970.9596 676.0088 970.9596 C 666.24615 970.9596 658.3319 969.429 658.3319 967.541 L 693.68567 967.541" stroke="black" stroke-linecap="round" stroke-linejoin="round" stroke-width="1"/><path d="M 692.02698 967.5391 C 692.02698 956.2973 699.94122 947.184 709.70386 947.184 C 719.4665 947.184 727.38074 956.2973 727.38074 967.5391 L 692.02698 967.5391" fill="#e6e6e6"/><path d="M 692.02698 967.5391 C 692.02698 956.2973 699.94122 947.184 709.70386 947.184 C 719.4665 947.184 727.38074 956.2973 727.38074 967.5391 L 692.02698 967.5391" stroke="black" stroke-linecap="round" stroke-linejoin="round" stroke-width="1"/><path d="M 727.3817 967.541 C 727.3817 969.429 719.46747 970.9596 709.70483 970.9596 C 699.9422 970.9596 692.02795 969.429 692.02795 967.541 L 727.3817 967.541" fill="#aaa"/><path d="M 727.3817 967.541 C 727.3817 969.429 719.46747 970.9596 709.70483 970.9596 C 699.9422 970.9596 692.02795 969.429 692.02795 967.541 L 727.3817 967.541" stroke="black" stroke-linecap="round" stroke-linejoin="round" stroke-width="1"/><path d="M 698.87903 862.924 C 701.5584 862.61505 704.05518 862.00385 706.91803 861.997 C 709.7809 861.99017 713.01166 862.5877 716.058 862.883" stroke="#aaa" stroke-linecap="round" stroke-linejoin="round" stroke-width="8"/><path d="M 699.704 862.992 C 702.18005 862.72705 704.55676 862.21466 707.133 862.197 C 709.70923 862.1794 712.48663 862.65637 715.16302 862.886" stroke="#ffe957" stroke-linecap="round" stroke-linejoin="round" stroke-width="2"/><path d="M 671.002 862.343 C 673.4748 862.03436 675.77863 861.42383 678.42102 861.417 C 681.0634 861.41016 684.04596 862.007 686.85797 862.302" stroke="#aaa" stroke-linecap="round" stroke-linejoin="round" stroke-width="8"/><path d="M 671.766 862.40997 C 674.0511 862.14465 676.24457 861.63153 678.622 861.614 C 680.99945 861.5965 683.56226 862.0747 686.032 862.305" stroke="#ffe957" stroke-linecap="round" stroke-linejoin="round" stroke-width="2"/><path d="M 584.8941 905.32806 L 813.34637 856.76904 L 814.38397 861.65057 L 585.9317 910.2096 Z" fill="#888"/><path d="M 584.8941 905.32806 L 813.34637 856.76904 L 814.38397 861.65057 L 585.9317 910.2096 Z" stroke="black" stroke-linecap="round" stroke-linejoin="round" stroke-width="1"/><circle cx="745.59784" cy="873.18286" r="11.487874" fill="#e6e6e6"/><circle cx="745.59784" cy="873.18286" r="11.487874" stroke="black" stroke-linecap="round" stroke-linejoin="round" stroke-width="1"/><circle cx="645.9529" cy="894.89984" r="11.487874" fill="#e6e6e6"/><circle cx="645.9529" cy="894.89984" r="11.487874" stroke="black" stroke-linecap="round" stroke-linejoin="round" stroke-width="1"/><path d="M 597.9458 880.58374 L 601.51147 879.82587 L 611.15564 925.1981 L 607.58997 925.956 Z" fill="#333"/><path d="M 597.9458 880.58374 L 601.51147 879.82587 L 611.15564 925.1981 L 607.58997 925.956 Z" stroke="black" stroke-linecap="round" stroke-linejoin="round" stroke-width="1"/><path d="M 594.53534 884.89355 L 598.48798 884.0534 L 606.31757 920.8888 L 602.36493 921.72894 Z" fill="#333"/><path d="M 594.53534 884.89355 L 598.48798 884.0534 L 606.31757 920.8888 L 602.36493 921.72894 Z" stroke="black" stroke-linecap="round" stroke-linejoin="round" stroke-width="1"/><path d="M 784.9529 841.43616 L 788.88934 840.59943 L 798.53357 885.9718 L 794.5971 886.80853 Z" fill="#333"/><path d="M 784.9529 841.43616 L 788.88934 840.59943 L 798.53357 885.9718 L 794.5971 886.80853 Z" stroke="black" stroke-linecap="round" stroke-linejoin="round" stroke-width="1"/><path d="M 584.0384 916.1491 C 587.06506 919.95984 585.6665 922.19794 580.91467 921.14813 C 576.16284 920.09833 569.8571 916.1581 566.8305 912.34735 C 563.80383 908.5366 565.2024 906.2985 569.95422 907.34833 C 574.70605 908.39813 581.01178 912.3384 584.0384 916.1491" fill="#333"/><path d="M 584.0384 916.1491 C 587.06506 919.95984 585.6665 922.19794 580.91467 921.14813 C 576.16284 920.09833 569.8571 916.1581 566.8305 912.34735 C 563.80383 908.5366 565.2024 906.2985 569.95422 907.34833 C 574.70605 908.39813 581.01178 912.3384 584.0384 916.1491" stroke="black" stroke-linecap="round" stroke-linejoin="round" stroke-width="1"/><path d="M 584.7254 914.9591 C 587.75208 918.76984 586.3535 921.00793 581.6017 919.95813 C 576.84985 918.9083 570.54413 914.9681 567.51752 911.15735 C 564.49084 907.3466 565.8894 905.1085 570.64124 906.1583 C 575.39307 907.20813 581.6988 911.1484 584.7254 914.9591" fill="#333"/><path d="M 584.7254 914.9591 C 587.75208 918.76984 586.3535 921.00793 581.6017 919.95813 C 576.84985 918.9083 570.54413 914.9681 567.51752 911.15735 C 564.49084 907.3466 565.8894 905.1085 570.64124 906.1583 C 575.39307 907.20813 581.6988 911.1484 584.7254 914.9591" stroke="black" stroke-linecap="round" stroke-linejoin="round" stroke-width="1"/><path d="M 577.95886 913.5233 C 578.67303 914.308 578.41895 914.7299 577.39136 914.46564 C 576.36377 914.2014 574.95178 913.3511 574.23755 912.5664 C 573.52338 911.78174 573.77747 911.3598 574.80505 911.6241 C 575.83264 911.8883 577.24463 912.73865 577.95886 913.5233" fill="white"/><path d="M 577.95886 913.5233 C 578.67303 914.308 578.41895 914.7299 577.39136 914.46564 C 576.36377 914.2014 574.95178 913.3511 574.23755 912.5664 C 573.52338 911.78174 573.77747 911.3598 574.80505 911.6241 C 575.83264 911.8883 577.24463 912.73865 577.95886 913.5233" stroke="black" stroke-linecap="round" stroke-linejoin="round" stroke-width="1"/><text transform="translate(578.5974 914.5499) rotate(31.056973)" fill="black"/><path d="M 816.2715 965.88965 C 820.08936 967.3968 820.0117 969.62146 816.09796 970.8586 C 812.1842 972.0957 805.9165 971.87683 802.09863 970.36975 C 798.28076 968.8626 798.3584 966.63794 802.27216 965.4008 C 806.1859 964.1637 812.4536 964.38257 816.2715 965.88965" fill="#333"/><path d="M 816.2715 965.88965 C 820.08936 967.3968 820.0117 969.62146 816.09796 970.8586 C 812.1842 972.0957 805.9165 971.87683 802.09863 970.36975 C 798.28076 968.8626 798.3584 966.63794 802.27216 965.4008 C 806.1859 964.1637 812.4536 964.38257 816.2715 965.88965" stroke="black" stroke-linecap="round" stroke-linejoin="round" stroke-width="1"/><path d="M 816.2715 964.7326 C 820.08936 966.23975 820.0117 968.4644 816.09796 969.70154 C 812.1842 970.93866 805.9165 970.7198 802.09863 969.2127 C 798.28076 967.70557 798.3584 965.4809 802.27216 964.2438 C 806.1859 963.00665 812.4536 963.2255 816.2715 964.7326" fill="#333"/><path d="M 816.2715 964.7326 C 820.08936 966.23975 820.0117 968.4644 816.09796 969.70154 C 812.1842 970.93866 805.9165 970.7198 802.09863 969.2127 C 798.28076 967.70557 798.3584 965.4809 802.27216 964.2438 C 806.1859 963.00665 812.4536 963.2255 816.2715 964.7326" stroke="black" stroke-linecap="round" stroke-linejoin="round" stroke-width="1"/><path d="M 810.72455 966.53687 C 811.57715 966.80884 811.5695 967.2242 810.70746 967.46454 C 809.8454 967.7049 808.45544 967.6792 807.60284 967.4072 C 806.75024 967.13525 806.75787 966.7199 807.61993 966.47955 C 808.482 966.2392 809.87195 966.2649 810.72455 966.53687" fill="white"/><path d="M 810.72455 966.53687 C 811.57715 966.80884 811.5695 967.2242 810.70746 967.46454 C 809.8454 967.7049 808.45544 967.6792 807.60284 967.4072 C 806.75024 967.13525 806.75787 966.7199 807.61993 966.47955 C 808.482 966.2392 809.87195 966.2649 810.72455 966.53687" stroke="black" stroke-linecap="round" stroke-linejoin="round" stroke-width="1"/><text transform="translate(812.4066 967.03186) rotate(1.05697294)" fill="black"/><path d="M 827.84064 966.42267 C 831.6906 969.2758 830.9308 971.761 826.14355 971.9735 C 821.3564 972.18604 814.3546 970.0454 810.5047 967.1922 C 806.65472 964.33905 807.41455 961.8539 812.2018 961.64136 C 816.98895 961.42883 823.9907 963.56946 827.84064 966.42267" fill="#333"/><path d="M 827.84064 966.42267 C 831.6906 969.2758 830.9308 971.761 826.14355 971.9735 C 821.3564 972.18604 814.3546 970.0454 810.5047 967.1922 C 806.65472 964.33905 807.41455 961.8539 812.2018 961.64136 C 816.98895 961.42883 823.9907 963.56946 827.84064 966.42267" stroke="black" stroke-linecap="round" stroke-linejoin="round" stroke-width="1"/><path d="M 828.1906 965.1177 C 832.0406 967.9708 831.28076 970.456 826.49353 970.6685 C 821.70636 970.88104 814.7046 968.7404 810.85468 965.8872 C 807.0047 963.03406 807.76453 960.5489 812.55176 960.33636 C 817.33893 960.12384 824.3407 962.26447 828.1906 965.1177" fill="#333"/><path d="M 828.1906 965.1177 C 832.0406 967.9708 831.28076 970.456 826.49353 970.6685 C 821.70636 970.88104 814.7046 968.7404 810.85468 965.8872 C 807.0047 963.03406 807.76453 960.5489 812.55176 960.33636 C 817.33893 960.12384 824.3407 962.26447 828.1906 965.1177" stroke="black" stroke-linecap="round" stroke-linejoin="round" stroke-width="1"/><path d="M 821.38904 965.4768 C 822.2683 966.04114 822.13416 966.50714 821.0894 966.5177 C 820.0447 966.52826 818.485 966.07935 817.6057 965.515 C 816.72644 964.9507 816.8606 964.4847 817.90533 964.4741 C 818.95007 964.46356 820.50977 964.9125 821.38904 965.4768" fill="white"/><path d="M 821.38904 965.4768 C 822.2683 966.04114 822.13416 966.50714 821.0894 966.5177 C 820.0447 966.52826 818.485 966.07935 817.6057 965.515 C 816.72644 964.9507 816.8606 964.4847 817.90533 964.4741 C 818.95007 964.46356 820.50977 964.9125 821.38904 965.4768" stroke="black" stroke-linecap="round" stroke-linejoin="round" stroke-width="1"/><text transform="translate(822.33167 966.3117) rotate(16.056972)" fill="black"/><path d="M 810.43896 956.84973 C 816.58093 957.0151 817.6106 960.1841 812.73883 963.928 C 807.86707 967.6719 798.9387 970.5729 792.79675 970.4076 C 786.6548 970.24225 785.6251 967.07324 790.4969 963.32935 C 795.36865 959.58545 804.297 956.68445 810.43896 956.84973" fill="#333"/><path d="M 810.43896 956.84973 C 816.58093 957.0151 817.6106 960.1841 812.73883 963.928 C 807.86707 967.6719 798.9387 970.5729 792.79675 970.4076 C 786.6548 970.24225 785.6251 967.07324 790.4969 963.32935 C 795.36865 959.58545 804.297 956.68445 810.43896 956.84973" stroke="black" stroke-linecap="round" stroke-linejoin="round" stroke-width="1"/><path d="M 809.8469 955.2227 C 815.9889 955.38806 817.01855 958.55707 812.1468 962.30096 C 807.27502 966.04486 798.3467 968.94586 792.2047 968.7806 C 786.06274 968.61523 785.0331 965.4462 789.90485 961.70233 C 794.7766 957.95844 803.70496 955.05743 809.8469 955.2227" fill="#333"/><path d="M 809.8469 955.2227 C 815.9889 955.38806 817.01855 958.55707 812.1468 962.30096 C 807.27502 966.04486 798.3467 968.94586 792.2047 968.7806 C 786.06274 968.61523 785.0331 965.4462 789.90485 961.70233 C 794.7766 957.95844 803.70496 955.05743 809.8469 955.2227" stroke="black" stroke-linecap="round" stroke-linejoin="round" stroke-width="1"/><path d="M 802.9655 960.5998 C 804.304 960.54584 804.50586 961.134 803.4164 961.9134 C 802.32684 962.69287 800.3585 963.3684 799.01996 963.4223 C 797.68146 963.47626 797.4796 962.8881 798.5691 962.1087 C 799.65863 961.3292 801.62695 960.6537 802.9655 960.5998" fill="white"/><path d="M 802.9655 960.5998 C 804.304 960.54584 804.50586 961.134 803.4164 961.9134 C 802.32684 962.69287 800.3585 963.3684 799.01996 963.4223 C 797.68146 963.47626 797.4796 962.8881 798.5691 962.1087 C 799.65863 961.3292 801.62695 960.6537 802.9655 960.5998" stroke="black" stroke-linecap="round" stroke-linejoin="round" stroke-width="1"/><text transform="translate(803.23492 961.24146) rotate(-18.943028)" fill="black"/><path d="M 581.339 941.8041 C 585.44208 941.9145 586.12994 944.03156 582.87537 946.53265 C 579.6208 949.03375 573.65625 950.9718 569.5531 950.8613 C 565.45 950.7509 564.76215 948.63385 568.01672 946.13275 C 571.2713 943.63165 577.23584 941.6936 581.339 941.8041" fill="#333"/><path d="M 581.339 941.8041 C 585.44208 941.9145 586.12994 944.03156 582.87537 946.53265 C 579.6208 949.03375 573.65625 950.9718 569.5531 950.8613 C 565.45 950.7509 564.76215 948.63385 568.01672 946.13275 C 571.2713 943.63165 577.23584 941.6936 581.339 941.8041" stroke="black" stroke-linecap="round" stroke-linejoin="round" stroke-width="1"/><path d="M 580.94397 940.7181 C 585.04706 940.8285 585.73492 942.94556 582.48035 945.44666 C 579.22577 947.94775 573.26123 949.8858 569.15808 949.77533 C 565.055 949.6649 564.36713 947.54785 567.6217 945.04675 C 570.87628 942.54565 576.84082 940.6076 580.94397 940.7181" fill="#333"/><path d="M 580.94397 940.7181 C 585.04706 940.8285 585.73492 942.94556 582.48035 945.44666 C 579.22577 947.94775 573.26123 949.8858 569.15808 949.77533 C 565.055 949.6649 564.36713 947.54785 567.6217 945.04675 C 570.87628 942.54565 576.84082 940.6076 580.94397 940.7181" stroke="black" stroke-linecap="round" stroke-linejoin="round" stroke-width="1"/><path d="M 576.3476 944.31024 C 577.24176 944.27423 577.37665 944.6671 576.64874 945.1878 C 575.9209 945.7085 574.60596 946.15985 573.71173 946.19586 C 572.81757 946.2319 572.68268 945.839 573.4106 945.3183 C 574.13843 944.7976 575.45337 944.34625 576.3476 944.31024" fill="white"/><path d="M 576.3476 944.31024 C 577.24176 944.27423 577.37665 944.6671 576.64874 945.1878 C 575.9209 945.7085 574.60596 946.15985 573.71173 946.19586 C 572.81757 946.2319 572.68268 945.839 573.4106 945.3183 C 574.13843 944.7976 575.45337 944.34625 576.3476 944.31024" stroke="black" stroke-linecap="round" stroke-linejoin="round" stroke-width="1"/><text transform="translate(578.09747 944.20013) rotate(-18.943028)" fill="black"/><path d="M 564.99902 915.692 C 567.61377 918.10846 569.98114 921.2338 572.844 922.942 C 575.70685 924.6502 579.06696 924.94214 582.17798 925.942" stroke="black" stroke-linecap="round" stroke-linejoin="round" stroke-width="1"/><path d="M 567.221 924.901 C 569.09515 926.24786 570.88037 928.0671 572.844 928.942 C 574.80762 929.81696 576.95087 929.74805 579.00403 930.151" stroke="black" stroke-linecap="round" stroke-linejoin="round" stroke-width="1"/><path d="M 562.857 945.269 C 564.70117 943.6858 565.74762 941.81055 568.39 940.519 C 571.0324 939.2274 575.27234 938.51886 578.713 937.519" stroke="black" stroke-linecap="round" stroke-linejoin="round" stroke-width="1"/><path d="M 567.221 898.97803 C 570.51837 900.1422 574.62146 901.1666 577.114 902.471 C 579.60657 903.7754 580.49017 905.3605 582.17798 906.805" stroke="black" stroke-linecap="round" stroke-linejoin="round" stroke-width="1"/><path d="M 679.46686 824.13416 L 676.64935 819.1554 C 678.0257 818.40796 679.53986 817.9365 681.1015 817.76935 L 681.68463 823.4265 C 681.75195 824.07983 681.27704 824.664 680.6237 824.7313 C 680.1537 824.7798 679.6996 824.5454 679.46686 824.13416 Z" fill="#ccc"/><path d="M 646.24707 875.08167 L 640.85468 876.9918 C 640.3576 875.5066 640.1563 873.9336 640.2628 872.3666 L 645.93536 872.77466 C 646.59045 872.8218 647.08325 873.391 647.03613 874.0461 C 647.0022 874.5174 646.69244 874.9239 646.24707 875.08167 Z" fill="#ccc"/><path d="M 651.80377 844.56085 L 646.17877 843.5189 C 646.49084 841.98413 647.10303 840.52124 647.97876 839.2174 L 652.68726 842.40704 C 653.231 842.7754 653.37323 843.51477 653.0049 844.05853 C 652.73987 844.44977 652.2683 844.6469 651.8037 844.56085 Z" fill="#ccc"/><path d="M 718.09344 827.3808 L 722.1035 823.3009 C 720.96753 822.22266 719.62695 821.37543 718.16174 820.80975 L 716.13428 826.12323 C 715.90015 826.7368 716.20776 827.42407 716.82135 827.6582 C 717.2628 827.82666 717.76215 827.71777 718.0934 827.3808 Z" fill="#ccc"/><path d="M 743.5589 855.2808 L 749.1839 854.2389 C 748.87183 852.7041 748.25964 851.2412 747.3839 849.9374 L 742.6754 853.127 C 742.13165 853.49536 741.98944 854.23474 742.3578 854.7785 C 742.6228 855.16974 743.09436 855.3669 743.55896 855.2808 Z" fill="#ccc"/><path d="M 576.90002 953.387 C 578.2675 952.84875 579.83044 952.3969 581.003 951.772 C 582.17554 951.14703 582.95844 950.34863 583.93597 949.637" stroke="black" stroke-linecap="round" stroke-linejoin="round" stroke-width="1"/></g></g></svg>
