<?xml version="1.0"?>
<!DOCTYPE svg PUBLIC "-//W3C//DTD SVG 1.1//EN" "http://www.w3.org/Graphics/SVG/1.1/DTD/svg11.dtd">
<svg xmlns="http://www.w3.org/2000/svg" xmlns:xl="http://www.w3.org/1999/xlink" version="1.1" viewBox="1091 72 1116 689" width="93pc" height="689pt"><metadata xmlns:dc="http://purl.org/dc/elements/1.1/"><dc:date>2010-06-23 06:14Z</dc:date><!-- Produced by OmniGraffle Professional 5.2.3 --></metadata><defs></defs><g stroke="none" stroke-opacity="1" stroke-dasharray="none" fill="none" fill-opacity="1"><title>Canvas 1</title><rect fill="white" width="2795" height="3132"/><g><title>Layer 1</title><path d="M 1250.2473 462.0211 C 1254.23145 454.70834 1256.9292 447.6133 1262.2009 440.08066 C 1267.47266 432.548 1275.32166 424.5732 1281.881 416.82065" stroke="black" stroke-linecap="round" stroke-linejoin="round" stroke-width="5"/><ellipse cx="1281.31165" cy="417.49045" rx="11.464386" ry="10.8379774" fill="#ffe957"/><ellipse cx="1281.31165" cy="417.49045" rx="11.464386" ry="10.8379774" stroke="black" stroke-linecap="round" stroke-linejoin="round" stroke-width="1"/><circle cx="1220.7565" cy="516.15015" r="61.125587" fill="#e6e6e6"/><circle cx="1220.7565" cy="516.15015" r="61.125587" stroke="black" stroke-linecap="round" stroke-linejoin="round" stroke-width="1"/><circle cx="1296.8182" cy="528.19385" r="26.307232" fill="#e6e6e6"/><circle cx="1296.8182" cy="528.19385" r="26.307232" stroke="black" stroke-linecap="round" stroke-linejoin="round" stroke-width="1"/><circle cx="1138.1183" cy="561.89886" r="26.307232" fill="#e6e6e6"/><circle cx="1138.1183" cy="561.89886" r="26.307232" stroke="black" stroke-linecap="round" stroke-linejoin="round" stroke-width="1"/><path d="M 1176.552 690.18726 L 1176.552 604.516 C 1176.552 593.6028 1195.73535 584.74567 1219.37195 584.74567 C 1243.00854 584.74567 1262.1919 593.6028 1262.1919 604.516 L 1262.1919 690.18726 L 1219.37195 716.54767 Z" fill="#e6e6e6"/><path d="M 1176.552 690.18726 L 1176.552 604.516 C 1176.552 593.6028 1195.73535 584.74567 1219.37195 584.74567 C 1243.00854 584.74567 1262.1919 593.6028 1262.1919 604.516 L 1262.1919 690.18726 L 1219.37195 716.54767 Z" stroke="black" stroke-linecap="round" stroke-linejoin="round" stroke-width="1"/><path d="M 1146.1909 721.32587 C 1146.1909 695.5821 1164.31445 674.7127 1186.6709 674.7127 C 1209.02734 674.7127 1227.1509 695.5821 1227.1509 721.32587 L 1146.1909 721.32587" fill="#e6e6e6"/><path d="M 1146.1909 721.32587 C 1146.1909 695.5821 1164.31445 674.7127 1186.6709 674.7127 C 1209.02734 674.7127 1227.1509 695.5821 1227.1509 721.32587 L 1146.1909 721.32587" stroke="black" stroke-linecap="round" stroke-linejoin="round" stroke-width="1"/><path d="M 1227.1509 721.3318 C 1227.1509 725.65527 1209.02734 729.1602 1186.6709 729.16016 C 1164.31445 729.16016 1146.1909 725.65527 1146.1909 721.33173 L 1227.1509 721.3318" fill="#aaa"/><path d="M 1227.1509 721.3318 C 1227.1509 725.65527 1209.02734 729.1602 1186.6709 729.16016 C 1164.31445 729.16016 1146.1909 725.65527 1146.1909 721.33173 L 1227.1509 721.3318" stroke="black" stroke-linecap="round" stroke-linejoin="round" stroke-width="1"/><path d="M 1202.551 728.43774 C 1202.551 702.69397 1220.67456 681.8246 1243.031 681.8246 C 1265.38745 681.8246 1283.511 702.69397 1283.511 728.43774 L 1202.551 728.43774" fill="#e6e6e6"/><path d="M 1202.551 728.43774 C 1202.551 702.69397 1220.67456 681.8246 1243.031 681.8246 C 1265.38745 681.8246 1283.511 702.69397 1283.511 728.43774 L 1202.551 728.43774" stroke="black" stroke-linecap="round" stroke-linejoin="round" stroke-width="1"/><path d="M 1283.511 728.4436 C 1283.511 732.7671 1265.38745 736.27203 1243.031 736.27197 C 1220.67456 736.27197 1202.551 732.7671 1202.551 728.44354 L 1283.511 728.4436" fill="#aaa"/><path d="M 1283.511 728.4436 C 1283.511 732.7671 1265.38745 736.27203 1243.031 736.27197 C 1220.67456 736.27197 1202.551 732.7671 1202.551 728.44354 L 1283.511 728.4436" stroke="black" stroke-linecap="round" stroke-linejoin="round" stroke-width="1"/><path d="M 1217.871 503.04865 C 1223.4838 499.18536 1228.8115 491.72128 1234.71094 491.45764 C 1240.61035 491.194 1247.08496 498.13065 1253.271 501.46664" stroke="#aaa" stroke-linecap="round" stroke-linejoin="round" stroke-width="12"/><path d="M 1215.98096 500.52365 C 1222.1171 494.81454 1227.83496 483.5213 1234.391 483.39465 C 1240.947 483.268 1248.345 494.30786 1255.3209 499.76364" stroke="#aaa" stroke-linecap="round" stroke-linejoin="round" stroke-width="12"/><path d="M 1217.871 501.76166 C 1223.5404 496.8678 1228.9816 487.40344 1234.881 487.07864 C 1240.7804 486.75385 1247.1416 495.56842 1253.271 499.81265" stroke="#ffe957" stroke-linecap="round" stroke-linejoin="round" stroke-width="4"/><path d="M 1166.22095 503.04865 C 1171.4004 499.18536 1176.3165 491.72128 1181.761 491.45764 C 1187.20544 491.194 1193.1815 498.13065 1198.891 501.46664" stroke="#aaa" stroke-linecap="round" stroke-linejoin="round" stroke-width="12"/><path d="M 1164.47095 500.52365 C 1170.1337 494.81454 1175.4099 483.5213 1181.46094 483.39465 C 1187.51196 483.268 1194.3417 494.30786 1200.781 499.76364" stroke="#aaa" stroke-linecap="round" stroke-linejoin="round" stroke-width="12"/><path d="M 1166.22095 501.76166 C 1171.45374 496.8678 1176.47656 487.40363 1181.921 487.07864 C 1187.3655 486.75366 1193.23486 495.56775 1198.891 499.81165" stroke="#ffe957" stroke-linecap="round" stroke-linejoin="round" stroke-width="4"/><ellipse cx="1281.4866" cy="417.28528" rx="22.949701" ry="21.695875" fill="#ffe957" fill-opacity=".41"/><path d="M 2044.7036 395.52826 C 2035.8987 371.33704 2045.7915 345.52756 2066.7996 337.88123 C 2087.8079 330.23486 2111.9761 343.6471 2120.781 367.83832 L 2044.7036 395.52826" fill="#e6e6e6"/><path d="M 2044.7036 395.52826 C 2035.8987 371.33704 2045.7915 345.52756 2066.7996 337.88123 C 2087.8079 330.23486 2111.9761 343.6471 2120.781 367.83832 L 2044.7036 395.52826" stroke="black" stroke-linecap="round" stroke-linejoin="round" stroke-width="1"/><path d="M 2120.7808 367.84274 C 2122.2595 371.90555 2106.4277 381.39767 2085.4194 389.04404 C 2064.4114 396.6904 2046.1821 399.59546 2044.7034 395.53268 L 2120.7808 367.84274" fill="#aaa"/><path d="M 2120.7808 367.84274 C 2122.2595 371.90555 2106.4277 381.39767 2085.4194 389.04404 C 2064.4114 396.6904 2046.1821 399.59546 2044.7034 395.53268 L 2120.7808 367.84274" stroke="black" stroke-linecap="round" stroke-linejoin="round" stroke-width="1"/><path d="M 2136.3652 120.63198 C 2142.6465 114.718124 2147.1509 106.76841 2155.211 102.88864 C 2163.271 99.008873 2174.8918 99.196724 2184.731 97.351044" stroke="black" stroke-linecap="round" stroke-linejoin="round" stroke-width="5"/><ellipse cx="2184.1228" cy="97.46218" rx="11.4642296" ry="10.837964" fill="#ffe957"/><ellipse cx="2184.1228" cy="97.46218" rx="11.4642296" ry="10.837964" stroke="black" stroke-linecap="round" stroke-linejoin="round" stroke-width="1"/><path d="M 2134.7188 119.65394 C 2158.5898 143.52492 2158.5898 182.22737 2134.7188 206.09836 C 2110.8479 229.96945 2072.1453 229.96945 2048.2744 206.09836 C 2024.4033 182.22737 2024.4033 143.52492 2048.2744 119.65394 C 2072.1453 95.782837 2110.8479 95.782837 2134.7188 119.65394" fill="#e6e6e6"/><path d="M 2134.7188 119.65394 C 2158.5898 143.52492 2158.5898 182.22737 2134.7188 206.09836 C 2110.8479 229.96945 2072.1453 229.96945 2048.2744 206.09836 C 2024.4033 182.22737 2024.4033 143.52492 2048.2744 119.65394 C 2072.1453 95.782837 2110.8479 95.782837 2134.7188 119.65394" stroke="black" stroke-linecap="round" stroke-linejoin="round" stroke-width="1"/><circle cx="1987.5082" cy="231.49486" r="26.307249" fill="#e6e6e6"/><circle cx="1987.5082" cy="231.49486" r="26.307249" stroke="black" stroke-linecap="round" stroke-linejoin="round" stroke-width="1"/><path d="M 2009.2072 323.5373 L 2031.3806 240.78517 C 2034.2051 230.24382 2055.0271 226.65353 2077.8584 232.77115 C 2100.6897 238.88876 2116.927 252.40909 2114.1025 262.95044 L 2091.9292 345.70255 L 2043.7456 360.08212 Z" fill="#e6e6e6"/><path d="M 2009.2072 323.5373 L 2031.3806 240.78517 C 2034.2051 230.24382 2055.0271 226.65353 2077.8584 232.77115 C 2100.6897 238.88876 2116.927 252.40909 2114.1025 262.95044 L 2091.9292 345.70255 L 2043.7456 360.08212 Z" stroke="black" stroke-linecap="round" stroke-linejoin="round" stroke-width="1"/><path d="M 2141.5203 277.82385 C 2151.794 288.09744 2151.794 304.75424 2141.5203 315.02783 C 2131.2466 325.30145 2114.5898 325.30145 2104.3162 315.02783 C 2094.0425 304.75424 2094.0425 288.09744 2104.3162 277.82385 C 2114.5898 267.55023 2131.2466 267.55023 2141.5203 277.82385" fill="#e6e6e6"/><path d="M 2141.5203 277.82385 C 2151.794 288.09744 2151.794 304.75424 2141.5203 315.02783 C 2131.2466 325.30145 2114.5898 325.30145 2104.3162 315.02783 C 2094.0425 304.75424 2094.0425 288.09744 2104.3162 277.82385 C 2114.5898 267.55023 2131.2466 267.55023 2141.5203 277.82385" stroke="black" stroke-linecap="round" stroke-linejoin="round" stroke-width="1"/><path d="M 1958.3138 324.34665 C 1969.1936 301.01486 1994.439 289.76007 2014.7008 299.20831 C 2034.9625 308.65656 2042.5682 335.23001 2031.6885 358.5618 L 1958.3138 324.34665" fill="#e6e6e6"/><path d="M 1958.3138 324.34665 C 1969.1936 301.01486 1994.439 289.76007 2014.7008 299.20831 C 2034.9625 308.65656 2042.5682 335.23001 2031.6885 358.5618 L 1958.3138 324.34665" stroke="black" stroke-linecap="round" stroke-linejoin="round" stroke-width="1"/><path d="M 2031.6825 358.56696 C 2029.8552 362.48538 2011.9485 358.0026 1991.6868 348.55435 C 1971.4249 339.1061 1956.4807 328.27026 1958.3079 324.3518 L 2031.6825 358.56696" fill="#aaa"/><path d="M 2031.6825 358.56696 C 2029.8552 362.48538 2011.9485 358.0026 1991.6868 348.55435 C 1971.4249 339.1061 1956.4807 328.27026 1958.3079 324.3518 L 2031.6825 358.56696" stroke="black" stroke-linecap="round" stroke-linejoin="round" stroke-width="1"/><path d="M 2075.5542 119.589745 C 2080.0486 137.18735 2070.4219 157.83182 2054.0525 165.70047 C 2037.683 173.56921 2020.7697 165.68239 2016.2754 148.08475 C 2011.781 130.48715 2021.4077 109.84268 2037.7772 101.97403 C 2054.1465 94.105286 2071.06 101.992104 2075.5542 119.589745" fill="#aaa"/><path d="M 2075.5542 119.589745 C 2080.0486 137.18735 2070.4219 157.83182 2054.0525 165.70047 C 2037.683 173.56921 2020.7697 165.68239 2016.2754 148.08475 C 2011.781 130.48715 2021.4077 109.84268 2037.7772 101.97403 C 2054.1465 94.105286 2071.06 101.992104 2075.5542 119.589745" stroke="black" stroke-linecap="round" stroke-linejoin="round" stroke-width="1"/><path d="M 2057.1956 115.672 C 2058.5598 128.753296 2050.8313 145.32698 2039.9336 152.69038 C 2029.0358 160.05386 2019.0955 155.41861 2017.7312 142.33728 C 2016.367 129.25598 2024.0955 112.6823 2034.9932 105.318893 C 2045.891 97.95542 2055.8313 102.59067 2057.1956 115.672" fill="#ffe957"/><path d="M 2057.1956 115.672 C 2058.5598 128.753296 2050.8313 145.32698 2039.9336 152.69038 C 2029.0358 160.05386 2019.0955 155.41861 2017.7312 142.33728 C 2016.367 129.25598 2024.0955 112.6823 2034.9932 105.318893 C 2045.891 97.95542 2055.8313 102.59067 2057.1956 115.672" stroke="black" stroke-linecap="round" stroke-linejoin="round" stroke-width="1"/><path d="M 2122.4524 132.28485 C 2128.3845 151.7569 2118.0103 174.00482 2099.2805 181.97699 C 2080.551 189.94925 2060.5591 180.62683 2054.6272 161.15472 C 2048.6951 141.68268 2059.0693 119.43476 2077.7991 111.46259 C 2096.5286 103.49032 2116.5205 112.81275 2122.4524 132.28485" fill="#aaa"/><path d="M 2122.4524 132.28485 C 2128.3845 151.7569 2118.0103 174.00482 2099.2805 181.97699 C 2080.551 189.94925 2060.5591 180.62683 2054.6272 161.15472 C 2048.6951 141.68268 2059.0693 119.43476 2077.7991 111.46259 C 2096.5286 103.49032 2116.5205 112.81275 2122.4524 132.28485" stroke="black" stroke-linecap="round" stroke-linejoin="round" stroke-width="1"/><path d="M 2103.1616 129.236084 C 2105.8511 144.24414 2097.31 162.56073 2084.0842 170.14735 C 2070.8586 177.73405 2057.9568 171.71782 2055.2671 156.70972 C 2052.5776 141.70166 2061.1187 123.38507 2074.3445 115.79845 C 2087.5701 108.211746 2100.4719 114.22798 2103.1616 129.236084" fill="#ffe957"/><path d="M 2103.1616 129.236084 C 2105.8511 144.24414 2097.31 162.56073 2084.0842 170.14735 C 2070.8586 177.73405 2057.9568 171.71782 2055.2671 156.70972 C 2052.5776 141.70166 2061.1187 123.38507 2074.3445 115.79845 C 2087.5701 108.211746 2100.4719 114.22798 2103.1616 129.236084" stroke="black" stroke-linecap="round" stroke-linejoin="round" stroke-width="1"/><path d="M 1564.0814 123.20143 L 1600.3915 144.16504 L 1579.4279 180.47514 L 1543.1178 159.51154 Z" fill="white"/><path d="M 1564.0814 123.20143 L 1600.3915 144.16504 L 1579.4279 180.47514 L 1543.1178 159.51154 Z" stroke="black" stroke-linecap="round" stroke-linejoin="round" stroke-width="1"/><path d="M 1600.3914 144.16544 L 1636.7014 165.12903 L 1615.7378 201.43915 L 1579.4277 180.47556 Z" fill="white"/><path d="M 1600.3914 144.16544 L 1636.7014 165.12903 L 1615.7378 201.43915 L 1579.4277 180.47556 Z" stroke="black" stroke-linecap="round" stroke-linejoin="round" stroke-width="1"/><path d="M 1636.7014 165.12845 L 1673.0115 186.09204 L 1652.0479 222.40216 L 1615.7378 201.43857 Z" fill="white"/><path d="M 1636.7014 165.12845 L 1673.0115 186.09204 L 1652.0479 222.40216 L 1615.7378 201.43857 Z" stroke="black" stroke-linecap="round" stroke-linejoin="round" stroke-width="1"/><path d="M 1673.0013 186.09244 L 1709.3114 207.05603 L 1688.3478 243.36615 L 1652.0377 222.40256 Z" fill="white"/><path d="M 1673.0013 186.09244 L 1709.3114 207.05603 L 1688.3478 243.36615 L 1652.0377 222.40256 Z" stroke="black" stroke-linecap="round" stroke-linejoin="round" stroke-width="1"/><path d="M 1709.3114 207.05644 L 1745.6215 228.02005 L 1724.6578 264.33014 L 1688.3478 243.36655 Z" fill="white"/><path d="M 1709.3114 207.05644 L 1745.6215 228.02005 L 1724.6578 264.33014 L 1688.3478 243.36655 Z" stroke="black" stroke-linecap="round" stroke-linejoin="round" stroke-width="1"/><path d="M 1745.6213 228.01942 L 1781.9314 248.98303 L 1760.9678 285.29312 L 1724.6577 264.32953 Z" fill="black"/><path d="M 1745.6213 228.01942 L 1781.9314 248.98303 L 1760.9678 285.29312 L 1724.6577 264.32953 Z" stroke="black" stroke-linecap="round" stroke-linejoin="round" stroke-width="1"/><path d="M 1781.9414 248.98344 L 1818.2515 269.94705 L 1797.2878 306.25714 L 1760.9778 285.29355 Z" fill="white"/><path d="M 1781.9414 248.98344 L 1818.2515 269.94705 L 1797.2878 306.25714 L 1760.9778 285.29355 Z" stroke="black" stroke-linecap="round" stroke-linejoin="round" stroke-width="1"/><path d="M 1818.2513 269.94647 L 1854.5614 290.91006 L 1833.5978 327.22015 L 1797.2877 306.25656 Z" fill="white"/><path d="M 1818.2513 269.94647 L 1854.5614 290.91006 L 1833.5978 327.22015 L 1797.2877 306.25656 Z" stroke="black" stroke-linecap="round" stroke-linejoin="round" stroke-width="1"/><path d="M 1854.5614 290.91046 L 1890.8715 311.87405 L 1869.9078 348.18414 L 1833.5978 327.22055 Z" fill="white"/><path d="M 1854.5614 290.91046 L 1890.8715 311.87405 L 1869.9078 348.18414 L 1833.5978 327.22055 Z" stroke="black" stroke-linecap="round" stroke-linejoin="round" stroke-width="1"/><path d="M 1890.8713 311.87445 L 1927.1814 332.83804 L 1906.2178 369.14813 L 1869.9077 348.18454 Z" fill="white"/><path d="M 1890.8713 311.87445 L 1927.1814 332.83804 L 1906.2178 369.14813 L 1869.9077 348.18454 Z" stroke="black" stroke-linecap="round" stroke-linejoin="round" stroke-width="1"/><path d="M 1543.1213 159.51144 L 1579.4314 180.47504 L 1558.4678 216.78516 L 1522.1577 195.82156 Z" fill="white"/><path d="M 1543.1213 159.51144 L 1579.4314 180.47504 L 1558.4678 216.78516 L 1522.1577 195.82156 Z" stroke="black" stroke-linecap="round" stroke-linejoin="round" stroke-width="1"/><path d="M 1579.4314 180.47444 L 1615.7415 201.43805 L 1594.7778 237.74815 L 1558.4678 216.78455 Z" fill="white"/><path d="M 1579.4314 180.47444 L 1615.7415 201.43805 L 1594.7778 237.74815 L 1558.4678 216.78455 Z" stroke="black" stroke-linecap="round" stroke-linejoin="round" stroke-width="1"/><path d="M 1615.7413 201.43845 L 1652.0514 222.40204 L 1631.0878 258.71216 L 1594.7777 237.74857 Z" fill="white"/><path d="M 1615.7413 201.43845 L 1652.0514 222.40204 L 1631.0878 258.71216 L 1594.7777 237.74857 Z" stroke="black" stroke-linecap="round" stroke-linejoin="round" stroke-width="1"/><path d="M 1652.0414 222.40244 L 1688.3514 243.36603 L 1667.3878 279.67615 L 1631.0778 258.71255 Z" fill="white"/><path d="M 1652.0414 222.40244 L 1688.3514 243.36603 L 1667.3878 279.67615 L 1631.0778 258.71255 Z" stroke="black" stroke-linecap="round" stroke-linejoin="round" stroke-width="1"/><path d="M 1688.3514 243.36543 L 1724.6615 264.32904 L 1703.6979 300.63913 L 1667.3878 279.67554 Z" fill="white"/><path d="M 1688.3514 243.36543 L 1724.6615 264.32904 L 1703.6979 300.63913 L 1667.3878 279.67554 Z" stroke="black" stroke-linecap="round" stroke-linejoin="round" stroke-width="1"/><path d="M 1724.6614 264.32947 L 1760.9714 285.29306 L 1740.0078 321.60315 L 1703.6978 300.63956 Z" fill="black"/><path d="M 1724.6614 264.32947 L 1760.9714 285.29306 L 1740.0078 321.60315 L 1703.6978 300.63956 Z" stroke="black" stroke-linecap="round" stroke-linejoin="round" stroke-width="1"/><path d="M 1760.9714 285.29245 L 1797.2815 306.25604 L 1776.3179 342.56613 L 1740.0078 321.60254 Z" fill="white"/><path d="M 1760.9714 285.29245 L 1797.2815 306.25604 L 1776.3179 342.56613 L 1740.0078 321.60254 Z" stroke="black" stroke-linecap="round" stroke-linejoin="round" stroke-width="1"/><path d="M 1797.2814 306.25647 L 1833.5914 327.22006 L 1812.6278 363.53015 L 1776.3177 342.56656 Z" fill="white"/><path d="M 1797.2814 306.25647 L 1833.5914 327.22006 L 1812.6278 363.53015 L 1776.3177 342.56656 Z" stroke="black" stroke-linecap="round" stroke-linejoin="round" stroke-width="1"/><path d="M 1833.5914 327.22046 L 1869.9015 348.18405 L 1848.9379 384.49414 L 1812.6278 363.53055 Z" fill="white"/><path d="M 1833.5914 327.22046 L 1869.9015 348.18405 L 1848.9379 384.49414 L 1812.6278 363.53055 Z" stroke="black" stroke-linecap="round" stroke-linejoin="round" stroke-width="1"/><path d="M 1869.9014 348.18347 L 1906.2114 369.14706 L 1885.2478 405.45715 L 1848.9377 384.49356 Z" fill="white"/><path d="M 1869.9014 348.18347 L 1906.2114 369.14706 L 1885.2478 405.45715 L 1848.9377 384.49356 Z" stroke="black" stroke-linecap="round" stroke-linejoin="round" stroke-width="1"/><path d="M 1522.1514 195.82144 L 1558.4614 216.78503 L 1537.4978 253.09515 L 1501.1877 232.13156 Z" fill="white"/><path d="M 1522.1514 195.82144 L 1558.4614 216.78503 L 1537.4978 253.09515 L 1501.1877 232.13156 Z" stroke="black" stroke-linecap="round" stroke-linejoin="round" stroke-width="1"/><path d="M 1558.4614 216.78444 L 1594.7715 237.74805 L 1573.8079 274.05814 L 1537.4978 253.09454 Z" fill="white"/><path d="M 1558.4614 216.78444 L 1594.7715 237.74805 L 1573.8079 274.05814 L 1537.4978 253.09454 Z" stroke="black" stroke-linecap="round" stroke-linejoin="round" stroke-width="1"/><path d="M 1594.7714 237.74944 L 1631.0814 258.71304 L 1610.1178 295.02313 L 1573.8077 274.05954 Z" fill="white"/><path d="M 1594.7714 237.74944 L 1631.0814 258.71304 L 1610.1178 295.02313 L 1573.8077 274.05954 Z" stroke="black" stroke-linecap="round" stroke-linejoin="round" stroke-width="1"/><path d="M 1631.0814 258.71246 L 1667.3915 279.67606 L 1646.4279 315.98615 L 1610.1178 295.02255 Z" fill="white"/><path d="M 1631.0814 258.71246 L 1667.3915 279.67606 L 1646.4279 315.98615 L 1610.1178 295.02255 Z" stroke="black" stroke-linecap="round" stroke-linejoin="round" stroke-width="1"/><path d="M 1667.3914 279.67645 L 1703.7014 300.64005 L 1682.7378 336.95013 L 1646.4277 315.98654 Z" fill="white"/><path d="M 1667.3914 279.67645 L 1703.7014 300.64005 L 1682.7378 336.95013 L 1646.4277 315.98654 Z" stroke="black" stroke-linecap="round" stroke-linejoin="round" stroke-width="1"/><path d="M 1703.7014 300.64047 L 1740.0115 321.60406 L 1719.0479 357.91415 L 1682.7378 336.95056 Z" fill="black"/><path d="M 1703.7014 300.64047 L 1740.0115 321.60406 L 1719.0479 357.91415 L 1682.7378 336.95056 Z" stroke="black" stroke-linecap="round" stroke-linejoin="round" stroke-width="1"/><path d="M 1740.0114 321.60345 L 1776.3214 342.56705 L 1755.3578 378.87714 L 1719.0477 357.91354 Z" fill="black"/><path d="M 1740.0114 321.60345 L 1776.3214 342.56705 L 1755.3578 378.87714 L 1719.0477 357.91354 Z" stroke="black" stroke-linecap="round" stroke-linejoin="round" stroke-width="1"/><path d="M 1776.3214 342.56744 L 1812.6315 363.53104 L 1791.6678 399.84113 L 1755.3578 378.87753 Z" fill="black"/><path d="M 1776.3214 342.56744 L 1812.6315 363.53104 L 1791.6678 399.84113 L 1755.3578 378.87753 Z" stroke="black" stroke-linecap="round" stroke-linejoin="round" stroke-width="1"/><path d="M 1812.6313 363.53046 L 1848.9414 384.49405 L 1827.9778 420.80414 L 1791.6677 399.84055 Z" fill="white"/><path d="M 1812.6313 363.53046 L 1848.9414 384.49405 L 1827.9778 420.80414 L 1791.6677 399.84055 Z" stroke="black" stroke-linecap="round" stroke-linejoin="round" stroke-width="1"/><path d="M 1848.9414 384.49347 L 1885.2515 405.45706 L 1864.2878 441.76715 L 1827.9778 420.80356 Z" fill="white"/><path d="M 1848.9414 384.49347 L 1885.2515 405.45706 L 1864.2878 441.76715 L 1827.9778 420.80356 Z" stroke="black" stroke-linecap="round" stroke-linejoin="round" stroke-width="1"/><path d="M 1501.1914 232.13142 L 1537.5015 253.09503 L 1516.5378 289.40512 L 1480.2278 268.44153 Z" fill="black"/><path d="M 1501.1914 232.13142 L 1537.5015 253.09503 L 1516.5378 289.40512 L 1480.2278 268.44153 Z" stroke="black" stroke-linecap="round" stroke-linejoin="round" stroke-width="1"/><path d="M 1537.5013 253.09544 L 1573.8114 274.05905 L 1552.8478 310.36914 L 1516.5377 289.40555 Z" fill="black"/><path d="M 1537.5013 253.09544 L 1573.8114 274.05905 L 1552.8478 310.36914 L 1516.5377 289.40555 Z" stroke="black" stroke-linecap="round" stroke-linejoin="round" stroke-width="1"/><path d="M 1573.8114 274.05847 L 1610.1215 295.02206 L 1589.1578 331.33215 L 1552.8478 310.36856 Z" fill="black"/><path d="M 1573.8114 274.05847 L 1610.1215 295.02206 L 1589.1578 331.33215 L 1552.8478 310.36856 Z" stroke="black" stroke-linecap="round" stroke-linejoin="round" stroke-width="1"/><path d="M 1610.1113 295.02246 L 1646.4214 315.98605 L 1625.4578 352.29614 L 1589.1477 331.33255 Z" fill="white"/><path d="M 1610.1113 295.02246 L 1646.4214 315.98605 L 1625.4578 352.29614 L 1589.1477 331.33255 Z" stroke="black" stroke-linecap="round" stroke-linejoin="round" stroke-width="1"/><path d="M 1646.4214 315.98645 L 1682.7314 336.95004 L 1661.7678 373.26013 L 1625.4578 352.29654 Z" fill="white"/><path d="M 1646.4214 315.98645 L 1682.7314 336.95004 L 1661.7678 373.26013 L 1625.4578 352.29654 Z" stroke="black" stroke-linecap="round" stroke-linejoin="round" stroke-width="1"/><path d="M 1682.7313 336.94946 L 1719.0414 357.91306 L 1698.0778 394.22314 L 1661.7677 373.25955 Z" fill="white"/><path d="M 1682.7313 336.94946 L 1719.0414 357.91306 L 1698.0778 394.22314 L 1661.7677 373.25955 Z" stroke="black" stroke-linecap="round" stroke-linejoin="round" stroke-width="1"/><path d="M 1719.0414 357.91345 L 1755.3514 378.87704 L 1734.3878 415.18713 L 1698.0778 394.22354 Z" fill="white"/><path d="M 1719.0414 357.91345 L 1755.3514 378.87704 L 1734.3878 415.18713 L 1698.0778 394.22354 Z" stroke="black" stroke-linecap="round" stroke-linejoin="round" stroke-width="1"/><path d="M 1755.3514 378.87646 L 1791.6615 399.84006 L 1770.6979 436.15015 L 1734.3878 415.18655 Z" fill="black"/><path d="M 1755.3514 378.87646 L 1791.6615 399.84006 L 1770.6979 436.15015 L 1734.3878 415.18655 Z" stroke="black" stroke-linecap="round" stroke-linejoin="round" stroke-width="1"/><path d="M 1791.6714 399.84045 L 1827.9814 420.80405 L 1807.0178 457.11414 L 1770.7078 436.15054 Z" fill="white"/><path d="M 1791.6714 399.84045 L 1827.9814 420.80405 L 1807.0178 457.11414 L 1770.7078 436.15054 Z" stroke="black" stroke-linecap="round" stroke-linejoin="round" stroke-width="1"/><path d="M 1827.9813 420.80444 L 1864.2914 441.76804 L 1843.3278 478.07812 L 1807.0177 457.11453 Z" fill="white"/><path d="M 1827.9813 420.80444 L 1864.2914 441.76804 L 1843.3278 478.07812 L 1807.0177 457.11453 Z" stroke="black" stroke-linecap="round" stroke-linejoin="round" stroke-width="1"/><path d="M 1480.2214 268.44147 L 1516.5315 289.40506 L 1495.5679 325.71515 L 1459.2578 304.75156 Z" fill="white"/><path d="M 1480.2214 268.44147 L 1516.5315 289.40506 L 1495.5679 325.71515 L 1459.2578 304.75156 Z" stroke="black" stroke-linecap="round" stroke-linejoin="round" stroke-width="1"/><path d="M 1516.5314 289.40546 L 1552.8414 310.36905 L 1531.8778 346.67914 L 1495.56775 325.71555 Z" fill="white"/><path d="M 1516.5314 289.40546 L 1552.8414 310.36905 L 1531.8778 346.67914 L 1495.56775 325.71555 Z" stroke="black" stroke-linecap="round" stroke-linejoin="round" stroke-width="1"/><path d="M 1552.8514 310.36847 L 1589.1615 331.33206 L 1568.1979 367.64215 L 1531.8878 346.67856 Z" fill="white"/><path d="M 1552.8514 310.36847 L 1589.1615 331.33206 L 1568.1979 367.64215 L 1531.8878 346.67856 Z" stroke="black" stroke-linecap="round" stroke-linejoin="round" stroke-width="1"/><path d="M 1589.1514 331.33246 L 1625.4614 352.29605 L 1604.4978 388.60614 L 1568.1877 367.64255 Z" fill="white"/><path d="M 1589.1514 331.33246 L 1625.4614 352.29605 L 1604.4978 388.60614 L 1568.1877 367.64255 Z" stroke="black" stroke-linecap="round" stroke-linejoin="round" stroke-width="1"/><path d="M 1625.4614 352.29547 L 1661.7715 373.25906 L 1640.8079 409.56915 L 1604.4978 388.60556 Z" fill="black"/><path d="M 1625.4614 352.29547 L 1661.7715 373.25906 L 1640.8079 409.56915 L 1604.4978 388.60556 Z" stroke="black" stroke-linecap="round" stroke-linejoin="round" stroke-width="1"/><path d="M 1661.7714 373.25946 L 1698.0814 394.22305 L 1677.1178 430.53314 L 1640.8077 409.56955 Z" fill="white"/><path d="M 1661.7714 373.25946 L 1698.0814 394.22305 L 1677.1178 430.53314 L 1640.8077 409.56955 Z" stroke="black" stroke-linecap="round" stroke-linejoin="round" stroke-width="1"/><path d="M 1698.0814 394.22345 L 1734.3915 415.18704 L 1713.4279 451.49713 L 1677.1178 430.53354 Z" fill="white"/><path d="M 1698.0814 394.22345 L 1734.3915 415.18704 L 1713.4279 451.49713 L 1677.1178 430.53354 Z" stroke="black" stroke-linecap="round" stroke-linejoin="round" stroke-width="1"/><path d="M 1734.3914 415.18747 L 1770.7014 436.15106 L 1749.7378 472.46115 L 1713.4277 451.49756 Z" fill="black"/><path d="M 1734.3914 415.18747 L 1770.7014 436.15106 L 1749.7378 472.46115 L 1713.4277 451.49756 Z" stroke="black" stroke-linecap="round" stroke-linejoin="round" stroke-width="1"/><path d="M 1770.7014 436.15045 L 1807.0115 457.11404 L 1786.0479 493.42413 L 1749.7378 472.46054 Z" fill="white"/><path d="M 1770.7014 436.15045 L 1807.0115 457.11404 L 1786.0479 493.42413 L 1749.7378 472.46054 Z" stroke="black" stroke-linecap="round" stroke-linejoin="round" stroke-width="1"/><path d="M 1807.0114 457.11447 L 1843.3214 478.07806 L 1822.3578 514.38818 L 1786.0477 493.42456 Z" fill="white"/><path d="M 1807.0114 457.11447 L 1843.3214 478.07806 L 1822.3578 514.38818 L 1786.0477 493.42456 Z" stroke="black" stroke-linecap="round" stroke-linejoin="round" stroke-width="1"/><path d="M 1459.26135 304.75247 L 1495.5714 325.71606 L 1474.6078 362.02615 L 1438.2977 341.06256 Z" fill="white"/><path d="M 1459.26135 304.75247 L 1495.5714 325.71606 L 1474.6078 362.02615 L 1438.2977 341.06256 Z" stroke="black" stroke-linecap="round" stroke-linejoin="round" stroke-width="1"/><path d="M 1495.5714 325.71545 L 1531.8815 346.67905 L 1510.91785 382.98914 L 1474.6078 362.02554 Z" fill="white"/><path d="M 1495.5714 325.71545 L 1531.8815 346.67905 L 1510.91785 382.98914 L 1474.6078 362.02554 Z" stroke="black" stroke-linecap="round" stroke-linejoin="round" stroke-width="1"/><path d="M 1531.88135 346.67944 L 1568.1914 367.64304 L 1547.2278 403.95312 L 1510.9177 382.98953 Z" fill="black"/><path d="M 1531.88135 346.67944 L 1568.1914 367.64304 L 1547.2278 403.95312 L 1510.9177 382.98953 Z" stroke="black" stroke-linecap="round" stroke-linejoin="round" stroke-width="1"/><path d="M 1568.1914 367.64346 L 1604.5015 388.60706 L 1583.5378 424.91714 L 1547.2278 403.95355 Z" fill="black"/><path d="M 1568.1914 367.64346 L 1604.5015 388.60706 L 1583.5378 424.91714 L 1547.2278 403.95355 Z" stroke="black" stroke-linecap="round" stroke-linejoin="round" stroke-width="1"/><path d="M 1604.5013 388.60645 L 1640.8114 409.57004 L 1619.8478 445.88013 L 1583.5377 424.91653 Z" fill="black"/><path d="M 1604.5013 388.60645 L 1640.8114 409.57004 L 1619.8478 445.88013 L 1583.5377 424.91653 Z" stroke="black" stroke-linecap="round" stroke-linejoin="round" stroke-width="1"/><path d="M 1640.8114 409.57047 L 1677.1215 430.53406 L 1656.1578 466.84415 L 1619.8478 445.88055 Z" fill="black"/><path d="M 1640.8114 409.57047 L 1677.1215 430.53406 L 1656.1578 466.84415 L 1619.8478 445.88055 Z" stroke="black" stroke-linecap="round" stroke-linejoin="round" stroke-width="1"/><path d="M 1677.1213 430.53345 L 1713.4314 451.49704 L 1692.4678 487.80713 L 1656.1577 466.84354 Z" fill="white"/><path d="M 1677.1213 430.53345 L 1713.4314 451.49704 L 1692.4678 487.80713 L 1656.1577 466.84354 Z" stroke="black" stroke-linecap="round" stroke-linejoin="round" stroke-width="1"/><path d="M 1713.4314 451.49747 L 1749.7415 472.46106 L 1728.7778 508.77115 L 1692.4678 487.80756 Z" fill="black"/><path d="M 1713.4314 451.49747 L 1749.7415 472.46106 L 1728.7778 508.77115 L 1692.4678 487.80756 Z" stroke="black" stroke-linecap="round" stroke-linejoin="round" stroke-width="1"/><path d="M 1749.7413 472.46146 L 1786.0514 493.42505 L 1765.0878 529.73517 L 1728.7777 508.77155 Z" fill="white"/><path d="M 1749.7413 472.46146 L 1786.0514 493.42505 L 1765.0878 529.73517 L 1728.7777 508.77155 Z" stroke="black" stroke-linecap="round" stroke-linejoin="round" stroke-width="1"/><path d="M 1786.0514 493.42444 L 1822.3615 514.388 L 1801.3978 550.69812 L 1765.0878 529.73456 Z" fill="white"/><path d="M 1786.0514 493.42444 L 1822.3615 514.388 L 1801.3978 550.69812 L 1765.0878 529.73456 Z" stroke="black" stroke-linecap="round" stroke-linejoin="round" stroke-width="1"/><path d="M 1438.2914 341.06146 L 1474.6014 362.02505 L 1453.6378 398.33514 L 1417.3278 377.37155 Z" fill="white"/><path d="M 1438.2914 341.06146 L 1474.6014 362.02505 L 1453.6378 398.33514 L 1417.3278 377.37155 Z" stroke="black" stroke-linecap="round" stroke-linejoin="round" stroke-width="1"/><path d="M 1474.6113 362.02545 L 1510.9214 382.98904 L 1489.9578 419.29913 L 1453.6477 398.33554 Z" fill="white"/><path d="M 1474.6113 362.02545 L 1510.9214 382.98904 L 1489.9578 419.29913 L 1453.6477 398.33554 Z" stroke="black" stroke-linecap="round" stroke-linejoin="round" stroke-width="1"/><path d="M 1510.9214 382.98947 L 1547.2314 403.95306 L 1526.2678 440.26315 L 1489.9578 419.29956 Z" fill="white"/><path d="M 1510.9214 382.98947 L 1547.2314 403.95306 L 1526.2678 440.26315 L 1489.9578 419.29956 Z" stroke="black" stroke-linecap="round" stroke-linejoin="round" stroke-width="1"/><path d="M 1547.2214 403.95245 L 1583.5315 424.91605 L 1562.5679 461.22614 L 1526.2578 440.26254 Z" fill="white"/><path d="M 1547.2214 403.95245 L 1583.5315 424.91605 L 1562.5679 461.22614 L 1526.2578 440.26254 Z" stroke="black" stroke-linecap="round" stroke-linejoin="round" stroke-width="1"/><path d="M 1583.5314 424.91644 L 1619.8414 445.88004 L 1598.8778 482.19012 L 1562.56775 461.22653 Z" fill="white"/><path d="M 1583.5314 424.91644 L 1619.8414 445.88004 L 1598.8778 482.19012 L 1562.56775 461.22653 Z" stroke="black" stroke-linecap="round" stroke-linejoin="round" stroke-width="1"/><path d="M 1619.8414 445.87946 L 1656.1515 466.84305 L 1635.1879 503.15314 L 1598.8778 482.18954 Z" fill="black"/><path d="M 1619.8414 445.87946 L 1656.1515 466.84305 L 1635.1879 503.15314 L 1598.8778 482.18954 Z" stroke="black" stroke-linecap="round" stroke-linejoin="round" stroke-width="1"/><path d="M 1656.1514 466.84344 L 1692.4614 487.80704 L 1671.4978 524.11713 L 1635.1877 503.15353 Z" fill="white"/><path d="M 1656.1514 466.84344 L 1692.4614 487.80704 L 1671.4978 524.11713 L 1635.1877 503.15353 Z" stroke="black" stroke-linecap="round" stroke-linejoin="round" stroke-width="1"/><path d="M 1692.4614 487.80743 L 1728.7715 508.77103 L 1707.8079 545.0811 L 1671.4978 524.11755 Z" fill="white"/><path d="M 1692.4614 487.80743 L 1728.7715 508.77103 L 1707.8079 545.0811 L 1671.4978 524.11755 Z" stroke="black" stroke-linecap="round" stroke-linejoin="round" stroke-width="1"/><path d="M 1728.7814 508.77142 L 1765.0914 529.735 L 1744.1278 566.0451 L 1707.8177 545.08154 Z" fill="white"/><path d="M 1728.7814 508.77142 L 1765.0914 529.735 L 1744.1278 566.0451 L 1707.8177 545.08154 Z" stroke="black" stroke-linecap="round" stroke-linejoin="round" stroke-width="1"/><path d="M 1765.0914 529.73444 L 1801.4015 550.698 L 1780.4379 587.00812 L 1744.1278 566.04456 Z" fill="white"/><path d="M 1765.0914 529.73444 L 1801.4015 550.698 L 1780.4379 587.00812 L 1744.1278 566.04456 Z" stroke="black" stroke-linecap="round" stroke-linejoin="round" stroke-width="1"/><path d="M 1417.3314 377.37146 L 1453.6415 398.33505 L 1432.67786 434.64514 L 1396.3678 413.68155 Z" fill="white"/><path d="M 1417.3314 377.37146 L 1453.6415 398.33505 L 1432.67786 434.64514 L 1396.3678 413.68155 Z" stroke="black" stroke-linecap="round" stroke-linejoin="round" stroke-width="1"/><path d="M 1453.6414 398.33545 L 1489.9514 419.29904 L 1468.9878 455.60913 L 1432.6777 434.64554 Z" fill="white"/><path d="M 1453.6414 398.33545 L 1489.9514 419.29904 L 1468.9878 455.60913 L 1432.6777 434.64554 Z" stroke="black" stroke-linecap="round" stroke-linejoin="round" stroke-width="1"/><path d="M 1489.9514 419.29846 L 1526.2615 440.26205 L 1505.29785 476.57214 L 1468.9878 455.60855 Z" fill="white"/><path d="M 1489.9514 419.29846 L 1526.2615 440.26205 L 1505.29785 476.57214 L 1468.9878 455.60855 Z" stroke="black" stroke-linecap="round" stroke-linejoin="round" stroke-width="1"/><path d="M 1526.26135 440.26245 L 1562.5714 461.22604 L 1541.6078 497.53613 L 1505.2977 476.57254 Z" fill="white"/><path d="M 1526.26135 440.26245 L 1562.5714 461.22604 L 1541.6078 497.53613 L 1505.2977 476.57254 Z" stroke="black" stroke-linecap="round" stroke-linejoin="round" stroke-width="1"/><path d="M 1562.5714 461.22647 L 1598.8815 482.19006 L 1577.9178 518.50018 L 1541.6078 497.53656 Z" fill="white"/><path d="M 1562.5714 461.22647 L 1598.8815 482.19006 L 1577.9178 518.50018 L 1541.6078 497.53656 Z" stroke="black" stroke-linecap="round" stroke-linejoin="round" stroke-width="1"/><path d="M 1598.88135 482.18945 L 1635.1914 503.15305 L 1614.2278 539.46313 L 1577.9177 518.49957 Z" fill="black"/><path d="M 1598.88135 482.18945 L 1635.1914 503.15305 L 1614.2278 539.46313 L 1577.9177 518.49957 Z" stroke="black" stroke-linecap="round" stroke-linejoin="round" stroke-width="1"/><path d="M 1635.1914 503.15344 L 1671.5015 524.117 L 1650.5378 560.42712 L 1614.2278 539.46356 Z" fill="white"/><path d="M 1635.1914 503.15344 L 1671.5015 524.117 L 1650.5378 560.42712 L 1614.2278 539.46356 Z" stroke="black" stroke-linecap="round" stroke-linejoin="round" stroke-width="1"/><path d="M 1671.5013 524.11646 L 1707.8114 545.08002 L 1686.8478 581.39014 L 1650.5377 560.42657 Z" fill="white"/><path d="M 1671.5013 524.11646 L 1707.8114 545.08002 L 1686.8478 581.39014 L 1650.5377 560.42657 Z" stroke="black" stroke-linecap="round" stroke-linejoin="round" stroke-width="1"/><path d="M 1707.8114 545.08044 L 1744.1215 566.044 L 1723.1578 602.35413 L 1686.8478 581.39056 Z" fill="white"/><path d="M 1707.8114 545.08044 L 1744.1215 566.044 L 1723.1578 602.35413 L 1686.8478 581.39056 Z" stroke="black" stroke-linecap="round" stroke-linejoin="round" stroke-width="1"/><path d="M 1744.1213 566.04443 L 1780.4314 587.008 L 1759.4678 623.3181 L 1723.1577 602.35455 Z" fill="white"/><path d="M 1744.1213 566.04443 L 1780.4314 587.008 L 1759.4678 623.3181 L 1723.1577 602.35455 Z" stroke="black" stroke-linecap="round" stroke-linejoin="round" stroke-width="1"/><path d="M 1396.3713 413.68246 L 1432.6814 434.64606 L 1411.7178 470.95615 L 1375.4077 449.99255 Z" fill="white"/><path d="M 1396.3713 413.68246 L 1432.6814 434.64606 L 1411.7178 470.95615 L 1375.4077 449.99255 Z" stroke="black" stroke-linecap="round" stroke-linejoin="round" stroke-width="1"/><path d="M 1432.6814 434.64545 L 1468.99146 455.60904 L 1448.0278 491.91913 L 1411.7178 470.95554 Z" fill="white"/><path d="M 1432.6814 434.64545 L 1468.99146 455.60904 L 1448.0278 491.91913 L 1411.7178 470.95554 Z" stroke="black" stroke-linecap="round" stroke-linejoin="round" stroke-width="1"/><path d="M 1468.9913 455.60846 L 1505.3014 476.57205 L 1484.3378 512.88214 L 1448.0277 491.91855 Z" fill="black"/><path d="M 1468.9913 455.60846 L 1505.3014 476.57205 L 1484.3378 512.88214 L 1448.0277 491.91855 Z" stroke="black" stroke-linecap="round" stroke-linejoin="round" stroke-width="1"/><path d="M 1505.3014 476.57245 L 1541.61145 497.53604 L 1520.6478 533.84613 L 1484.3378 512.88257 Z" fill="black"/><path d="M 1505.3014 476.57245 L 1541.61145 497.53604 L 1520.6478 533.84613 L 1484.3378 512.88257 Z" stroke="black" stroke-linecap="round" stroke-linejoin="round" stroke-width="1"/><path d="M 1541.6113 497.53546 L 1577.9214 518.49902 L 1556.9578 554.80914 L 1520.6477 533.84558 Z" fill="black"/><path d="M 1541.6113 497.53546 L 1577.9214 518.49902 L 1556.9578 554.80914 L 1520.6477 533.84558 Z" stroke="black" stroke-linecap="round" stroke-linejoin="round" stroke-width="1"/><path d="M 1577.9214 518.49945 L 1614.2314 539.463 L 1593.2678 575.77313 L 1556.9578 554.80957 Z" fill="black"/><path d="M 1577.9214 518.49945 L 1614.2314 539.463 L 1593.2678 575.77313 L 1556.9578 554.80957 Z" stroke="black" stroke-linecap="round" stroke-linejoin="round" stroke-width="1"/><path d="M 1614.2313 539.46344 L 1650.5414 560.427 L 1629.5778 596.73712 L 1593.2677 575.77356 Z" fill="white"/><path d="M 1614.2313 539.46344 L 1650.5414 560.427 L 1629.5778 596.73712 L 1593.2677 575.77356 Z" stroke="black" stroke-linecap="round" stroke-linejoin="round" stroke-width="1"/><path d="M 1650.5414 560.42645 L 1686.8514 581.39 L 1665.8878 617.70013 L 1629.5778 596.73657 Z" fill="white"/><path d="M 1650.5414 560.42645 L 1686.8514 581.39 L 1665.8878 617.70013 L 1629.5778 596.73657 Z" stroke="black" stroke-linecap="round" stroke-linejoin="round" stroke-width="1"/><path d="M 1686.8514 581.39044 L 1723.1615 602.354 L 1702.1979 638.66412 L 1665.8878 617.70056 Z" fill="white"/><path d="M 1686.8514 581.39044 L 1723.1615 602.354 L 1702.1979 638.66412 L 1665.8878 617.70056 Z" stroke="black" stroke-linecap="round" stroke-linejoin="round" stroke-width="1"/><path d="M 1723.1614 602.35443 L 1759.4714 623.318 L 1738.5078 659.6281 L 1702.1978 638.66455 Z" fill="white"/><path d="M 1723.1614 602.35443 L 1759.4714 623.318 L 1738.5078 659.6281 L 1702.1978 638.66455 Z" stroke="black" stroke-linecap="round" stroke-linejoin="round" stroke-width="1"/><path d="M 1375.4014 449.99246 L 1411.7114 470.95605 L 1390.7478 507.26614 L 1354.43774 486.30255 Z" fill="white"/><path d="M 1375.4014 449.99246 L 1411.7114 470.95605 L 1390.7478 507.26614 L 1354.43774 486.30255 Z" stroke="black" stroke-linecap="round" stroke-linejoin="round" stroke-width="1"/><path d="M 1411.7114 470.95544 L 1448.0215 491.91904 L 1427.0579 528.22913 L 1390.7478 507.26553 Z" fill="white"/><path d="M 1411.7114 470.95544 L 1448.0215 491.91904 L 1427.0579 528.22913 L 1390.7478 507.26553 Z" stroke="black" stroke-linecap="round" stroke-linejoin="round" stroke-width="1"/><path d="M 1448.0214 491.91943 L 1484.3314 512.883 L 1463.3678 549.1931 L 1427.0577 528.22955 Z" fill="black"/><path d="M 1448.0214 491.91943 L 1484.3314 512.883 L 1463.3678 549.1931 L 1427.0577 528.22955 Z" stroke="black" stroke-linecap="round" stroke-linejoin="round" stroke-width="1"/><path d="M 1484.3314 512.88245 L 1520.6415 533.846 L 1499.6779 570.15613 L 1463.3678 549.19257 Z" fill="white"/><path d="M 1484.3314 512.88245 L 1520.6415 533.846 L 1499.6779 570.15613 L 1463.3678 549.19257 Z" stroke="black" stroke-linecap="round" stroke-linejoin="round" stroke-width="1"/><path d="M 1520.6414 533.84644 L 1556.9514 554.81 L 1535.9878 591.1201 L 1499.6777 570.15656 Z" fill="white"/><path d="M 1520.6414 533.84644 L 1556.9514 554.81 L 1535.9878 591.1201 L 1499.6777 570.15656 Z" stroke="black" stroke-linecap="round" stroke-linejoin="round" stroke-width="1"/><path d="M 1556.9514 554.81042 L 1593.2615 575.774 L 1572.29785 612.0841 L 1535.9878 591.12054 Z" fill="white"/><path d="M 1556.9514 554.81042 L 1593.2615 575.774 L 1572.29785 612.0841 L 1535.9878 591.12054 Z" stroke="black" stroke-linecap="round" stroke-linejoin="round" stroke-width="1"/><path d="M 1593.2614 575.77344 L 1629.5714 596.737 L 1608.6078 633.04712 L 1572.2977 612.08356 Z" fill="white"/><path d="M 1593.2614 575.77344 L 1629.5714 596.737 L 1608.6078 633.04712 L 1572.2977 612.08356 Z" stroke="black" stroke-linecap="round" stroke-linejoin="round" stroke-width="1"/><path d="M 1629.5714 596.73743 L 1665.8815 617.701 L 1644.9178 654.0111 L 1608.6078 633.04755 Z" fill="white"/><path d="M 1629.5714 596.73743 L 1665.8815 617.701 L 1644.9178 654.0111 L 1608.6078 633.04755 Z" stroke="black" stroke-linecap="round" stroke-linejoin="round" stroke-width="1"/><path d="M 1665.8813 617.7014 L 1702.1914 638.66498 L 1681.2278 674.9751 L 1644.9177 654.01154 Z" fill="white"/><path d="M 1665.8813 617.7014 L 1702.1914 638.66498 L 1681.2278 674.9751 L 1644.9177 654.01154 Z" stroke="black" stroke-linecap="round" stroke-linejoin="round" stroke-width="1"/><path d="M 1702.1914 638.66443 L 1738.5015 659.628 L 1717.5378 695.9381 L 1681.2278 674.97455 Z" fill="white"/><path d="M 1702.1914 638.66443 L 1738.5015 659.628 L 1717.5378 695.9381 L 1681.2278 674.97455 Z" stroke="black" stroke-linecap="round" stroke-linejoin="round" stroke-width="1"/><path d="M 1908.0371 325.13263 C 1876.2383 382.62854 1837.1395 467.83496 1812.631 497.63763 C 1788.1224 527.4403 1774.0096 496.45206 1760.9709 503.96664 C 1747.9323 511.48123 1750.2378 544.17987 1734.391 542.72968 C 1718.5442 541.27948 1669.309 521.72217 1665.881 495.26465 C 1662.453 468.80713 1721.6519 411.39008 1713.8209 383.96866 C 1705.99 356.54724 1640.2472 336.16592 1618.891 330.71964 C 1597.5348 325.27335 1601.1078 352.47421 1585.671 351.28766 C 1570.23425 350.1011 1543.1493 317.53525 1526.261 323.59964 C 1509.3727 329.66403 1497.8962 377.52948 1484.3309 387.67764 C 1470.7656 397.8258 1462.1135 368.29556 1444.861 384.49466 C 1427.6084 400.69376 1402.1548 451.42288 1380.8049 484.882" stroke="#be844a" stroke-linecap="round" stroke-linejoin="round" stroke-width="8"/><path d="M 1920.6727 287.64343 L 1935.0299 297.07437 L 1922.0713 316.80206 L 1930.5098 322.34518 L 1906.4858 324.88467 L 1899.2754 301.82803 L 1907.714 307.37112 Z" fill="#be844a"/><path d="M 1920.6727 287.64343 L 1935.0299 297.07437 L 1922.0713 316.80206 L 1930.5098 322.34518 L 1906.4858 324.88467 L 1899.2754 301.82803 L 1907.714 307.37112 Z" stroke="black" stroke-linecap="round" stroke-linejoin="round" stroke-width="1"/><path d="M 1373.57275 480.72943 L 1387.9299 490.16037 L 1374.9713 509.88806 L 1383.4098 515.43115 L 1359.3859 517.9707 L 1352.1754 494.91403 L 1360.614 500.45712 Z" fill="#be844a"/><path d="M 1373.57275 480.72943 L 1387.9299 490.16037 L 1374.9713 509.88806 L 1383.4098 515.43115 L 1359.3859 517.9707 L 1352.1754 494.91403 L 1360.614 500.45712 Z" stroke="black" stroke-linecap="round" stroke-linejoin="round" stroke-width="1"/></g></g></svg>
